<svg version="1.1" id="Layer_1" xmlns="http://www.w3.org/2000/svg" xmlns:xlink="http://www.w3.org/1999/xlink" x="0px" y="0px"
	 width="100%" viewBox="0 0 512 512" enable-background="new 0 0 512 512" xml:space="preserve">
<path fill="#000000" opacity="1.000000" stroke="none" 
	d="
M226.000000,513.000000 
	C151.033890,513.000000 76.067772,513.000000 1.050828,513.000000 
	C1.050828,342.444336 1.050828,171.888657 1.050828,1.000000 
	C76.687775,1.000000 152.376038,1.000000 228.571686,1.418662 
	C229.081833,3.000326 228.921112,4.191159 229.113602,5.321860 
	C230.482025,13.360223 230.539856,13.467813 222.593765,15.949830 
	C211.099365,19.540201 200.230392,24.290752 190.497330,32.055477 
	C189.430038,32.019855 188.713699,31.863157 188.109467,32.056580 
	C167.770859,38.567249 148.094849,46.576050 129.589630,58.076427 
	C112.829964,68.108917 97.601479,79.641029 84.293777,93.430344 
	C75.427269,102.617729 67.053085,112.364479 59.238529,122.464355 
	C45.265785,140.523346 35.085182,160.748047 26.940172,182.051025 
	C18.824461,203.277374 13.371267,225.261261 12.348116,247.828903 
	C11.474473,267.098846 12.285259,286.613007 14.363636,305.801117 
	C16.382000,324.435150 22.148109,342.460205 29.182724,360.307190 
	C34.834702,371.572968 40.472748,382.473907 46.090462,393.704651 
	C48.073288,397.214661 49.841316,400.575531 52.121655,403.542664 
	C60.514313,414.463074 68.604622,425.672394 77.734787,435.950378 
	C84.251274,443.286011 92.250244,449.304749 99.818924,456.200867 
	C104.692444,460.032227 109.334709,463.573853 114.115356,467.428467 
	C120.131134,471.512787 126.008530,475.284119 132.050522,479.372375 
	C136.735199,482.067749 141.255280,484.446198 146.129379,486.945038 
	C170.794128,499.772949 196.548935,507.807922 223.797653,511.080078 
	C224.597092,511.176086 225.268753,512.336121 226.000000,513.000000 
z"/>
<path fill="#000000" opacity="1.000000" stroke="none" 
	d="
M274.000000,0.999999 
	C353.631073,1.000000 433.262177,1.000000 512.946655,1.000000 
	C512.946655,171.554855 512.946655,342.109741 512.946655,513.000000 
	C438.312225,513.000000 363.623962,513.000000 288.248474,512.607056 
	C290.989502,511.479950 294.392426,510.586304 297.850067,510.037048 
	C322.567780,506.110413 346.025360,498.395630 368.530640,486.712585 
	C373.268250,484.084167 377.691589,481.568390 382.470886,479.018250 
	C388.557892,475.028229 394.288971,471.072510 400.376953,467.063477 
	C405.499969,463.367828 410.266144,459.725494 415.330750,455.928650 
	C422.095428,449.555359 428.561676,443.336548 435.335266,436.962830 
	C439.599426,432.201721 443.889923,427.837433 447.442230,422.937988 
	C454.472321,413.241974 461.094513,403.250244 468.194092,393.167908 
	C473.945892,381.947357 479.388885,370.939636 484.906250,359.559204 
	C485.621246,357.880859 486.395935,356.623138 486.882294,355.262360 
	C494.722656,333.327576 500.551025,310.792114 501.739227,287.560669 
	C502.966827,263.558929 502.472839,239.503754 497.073151,215.762939 
	C490.137024,185.266846 478.343079,156.897186 460.864716,131.040802 
	C449.556610,114.312317 437.134064,98.327553 421.100891,85.722366 
	C408.964813,76.181068 396.419434,67.160355 383.900757,57.586636 
	C375.537018,53.038734 367.480865,48.474754 359.075104,44.686447 
	C351.606964,41.320724 343.751007,38.815418 336.035583,35.961990 
	C336.004883,35.993652 336.055389,35.921349 335.948975,35.642269 
	C335.272644,35.281254 334.702698,35.199318 333.988373,34.801361 
	C331.926117,32.211308 330.260498,29.649704 328.049255,27.710192 
	C314.290924,15.642650 298.709747,7.164618 280.505341,3.857090 
	C278.238708,3.445265 276.163757,1.978137 274.000000,0.999999 
z"/>
<path fill="#55405E" opacity="1.000000" stroke="none" 
	d="
M273.535339,0.999999 
	C276.163757,1.978137 278.238708,3.445265 280.505341,3.857090 
	C298.709747,7.164618 314.290924,15.642650 328.049255,27.710192 
	C330.260498,29.649704 331.926117,32.211308 334.169983,35.095146 
	C335.015808,35.777088 335.535614,35.849220 336.055389,35.921349 
	C336.055389,35.921349 336.004883,35.993652 335.769806,36.260666 
	C340.401398,46.121807 346.481506,55.304520 349.900787,65.389381 
	C359.115387,92.567368 356.463654,120.161545 349.984558,147.530640 
	C345.733826,147.946716 341.875183,148.446625 337.875732,148.603821 
	C336.373016,144.356018 335.638611,140.062210 333.512756,136.630356 
	C329.628387,130.359787 328.379517,123.804413 329.000916,116.653366 
	C330.848999,95.385902 317.681458,81.149086 301.007690,74.966866 
	C287.423737,69.930275 273.269348,68.597221 258.692932,68.420425 
	C258.305084,68.161804 258.143219,68.068672 257.852753,67.659119 
	C256.289764,65.108391 254.776199,62.920467 253.435593,60.631260 
	C249.060745,53.160797 249.248016,44.871964 254.389923,39.351025 
	C256.835815,36.724846 260.033508,34.768044 263.003052,32.666939 
	C268.960754,28.451603 271.488922,23.122072 268.875092,16.376617 
	C266.762054,10.923516 263.019653,6.101795 260.000000,1.000001 
	C264.356903,1.000000 268.713806,1.000000 273.535339,0.999999 
z"/>
<path fill="#35253B" opacity="1.000000" stroke="none" 
	d="
M259.531342,1.000001 
	C263.019653,6.101795 266.762054,10.923516 268.875092,16.376617 
	C271.488922,23.122072 268.960754,28.451603 263.003052,32.666939 
	C260.033508,34.768044 256.835815,36.724846 254.389923,39.351025 
	C249.248016,44.871964 249.060745,53.160797 253.435593,60.631260 
	C254.776199,62.920467 256.289764,65.108391 257.435059,67.732132 
	C247.440216,69.398010 237.577133,69.966743 228.057785,72.082253 
	C198.316360,78.691765 187.541275,92.408485 186.900497,122.766922 
	C186.832840,125.973099 185.691010,129.247192 184.580460,132.321045 
	C182.559265,137.915451 180.187408,143.383148 177.589981,148.826141 
	C173.504028,148.273438 169.789963,147.798309 165.988678,146.910065 
	C162.170074,128.289139 160.816422,109.938286 163.263168,91.464447 
	C165.840698,72.003029 172.202454,54.026634 185.161774,38.841389 
	C187.077866,36.596180 188.987778,34.345688 190.900558,32.097641 
	C200.230392,24.290752 211.099365,19.540201 222.593765,15.949830 
	C230.539856,13.467813 230.482025,13.360223 229.113602,5.321860 
	C228.921112,4.191159 229.081833,3.000326 229.039536,1.418662 
	C239.020889,1.000000 249.041794,1.000000 259.531342,1.000001 
z"/>
<path fill="#88CE65" opacity="1.000000" stroke="none" 
	d="
M368.216309,486.825195 
	C346.025360,498.395630 322.567780,506.110413 297.850067,510.037048 
	C294.392426,510.586304 290.989502,511.479950 287.780640,512.607056 
	C267.645782,513.000000 247.291550,513.000000 226.468658,513.000000 
	C225.268753,512.336121 224.597092,511.176086 223.797653,511.080078 
	C196.548935,507.807922 170.794128,499.772949 146.293304,486.632202 
	C147.136230,483.825073 148.169250,481.451172 149.382751,479.100891 
	C149.563232,479.124451 149.921432,479.189392 150.061630,479.488586 
	C154.334717,486.776154 160.808563,489.731689 168.573883,489.822876 
	C182.044388,489.981018 195.518692,489.815247 209.458282,489.829315 
	C226.930405,489.826752 243.935684,489.780182 261.411285,489.775574 
	C277.550568,489.784668 293.219513,489.751740 309.354248,489.796875 
	C313.553528,489.827576 317.287048,489.780212 321.486145,489.770447 
	C327.762299,489.822327 333.577820,489.994232 339.382233,489.812622 
	C347.375885,489.562378 353.823853,486.407745 358.235565,479.063049 
	C360.722748,479.034821 362.771423,479.059875 364.915833,479.426575 
	C366.079773,482.120514 367.148041,484.472870 368.216309,486.825195 
z"/>
<path fill="#73C3F9" opacity="1.000000" stroke="none" 
	d="
M29.168800,359.942352 
	C22.148109,342.460205 16.382000,324.435150 14.363636,305.801117 
	C12.285259,286.613007 11.474473,267.098846 12.348116,247.828903 
	C13.371267,225.261261 18.824461,203.277374 26.940172,182.051025 
	C35.085182,160.748047 45.265785,140.523346 59.238529,122.464355 
	C67.053085,112.364479 75.427269,102.617729 84.293777,93.430344 
	C97.601479,79.641029 112.829964,68.108917 129.760681,58.420609 
	C136.191010,77.916931 137.270264,97.327843 132.050858,117.003845 
	C129.119965,128.052658 122.669014,137.108917 116.424019,146.344788 
	C107.577873,159.427536 102.517349,173.918793 104.453995,189.655777 
	C105.946037,201.779968 109.377213,213.699188 112.406578,225.592270 
	C116.487282,241.612839 120.488197,257.545746 115.986450,274.180359 
	C110.851448,293.154907 101.403328,308.375916 81.430405,314.713409 
	C76.677536,316.221497 71.999046,317.981781 67.342285,319.771606 
	C54.174706,324.832642 42.325153,331.643829 35.757053,344.936890 
	C33.339672,349.829346 31.352310,354.934326 29.168800,359.942352 
z"/>
<path fill="#49B1F7" opacity="1.000000" stroke="none" 
	d="
M29.182728,360.307190 
	C31.352310,354.934326 33.339672,349.829346 35.757053,344.936890 
	C42.325153,331.643829 54.174706,324.832642 67.342285,319.771606 
	C71.999046,317.981781 76.677536,316.221497 81.430405,314.713409 
	C101.403328,308.375916 110.851448,293.154907 115.986450,274.180359 
	C120.488197,257.545746 116.487282,241.612839 112.406578,225.592270 
	C109.377213,213.699188 105.946037,201.779968 104.453995,189.655777 
	C102.517349,173.918793 107.577873,159.427536 116.424019,146.344788 
	C122.669014,137.108917 129.119965,128.052658 132.050858,117.003845 
	C137.270264,97.327843 136.191010,77.916931 130.080414,58.276642 
	C148.094849,46.576050 167.770859,38.567249 188.109467,32.056580 
	C188.713699,31.863157 189.430038,32.019855 190.497330,32.055473 
	C188.987778,34.345688 187.077866,36.596180 185.161774,38.841389 
	C172.202454,54.026634 165.840698,72.003029 163.263168,91.464447 
	C160.816422,109.938286 162.170074,128.289139 165.731049,147.115417 
	C159.599274,150.579620 158.131409,155.641907 158.270782,161.792480 
	C149.687805,164.775085 147.277939,168.441635 146.993652,178.187103 
	C141.687042,180.179871 139.356674,183.908813 139.333710,189.055084 
	C139.296722,197.341293 139.433960,205.628311 139.405090,214.382217 
	C139.271530,220.325912 139.330231,225.805466 139.159760,231.277893 
	C139.006042,236.212357 140.399094,240.426559 144.119415,244.242767 
	C144.030579,269.595245 143.957932,294.464264 143.538879,319.477020 
	C138.227203,322.322540 133.390366,325.307648 128.255524,327.635437 
	C124.223366,329.463348 119.903687,331.296814 115.573189,331.724274 
	C84.526970,334.788788 63.696136,351.278290 51.587822,379.529816 
	C49.633499,384.089691 47.930145,388.757111 46.110794,393.374817 
	C40.472748,382.473907 34.834702,371.572968 29.182728,360.307190 
z"/>
<path fill="#6FAF47" opacity="1.000000" stroke="none" 
	d="
M46.090462,393.704651 
	C47.930145,388.757111 49.633499,384.089691 51.587822,379.529816 
	C63.696136,351.278290 84.526970,334.788788 115.573189,331.724274 
	C119.903687,331.296814 124.223366,329.463348 128.255524,327.635437 
	C133.390366,325.307648 138.227203,322.322540 143.623672,319.943695 
	C145.464722,336.158966 150.939392,350.421417 160.803741,362.967346 
	C158.594009,364.358276 156.690964,365.582581 154.529556,366.971161 
	C152.994629,368.407471 151.718063,369.679474 149.944885,370.882782 
	C147.283875,370.803497 145.115738,370.704956 142.955780,370.797546 
	C133.535431,371.201294 126.523270,377.542542 124.679962,387.235657 
	C118.434235,390.790161 114.201561,395.435516 114.057289,402.653076 
	C113.915161,409.763336 114.118774,416.880463 114.108398,424.456726 
	C113.980522,429.817291 113.914932,434.715729 113.570648,439.820312 
	C108.723862,445.321320 104.155762,450.616211 99.587677,455.911133 
	C92.250244,449.304749 84.251274,443.286011 77.734787,435.950378 
	C68.604622,425.672394 60.514313,414.463074 52.121655,403.542664 
	C49.841316,400.575531 48.073288,397.214661 46.090462,393.704651 
z"/>
<path fill="#FEAA7B" opacity="1.000000" stroke="none" 
	d="
M113.849342,439.614197 
	C113.914932,434.715729 113.980522,429.817291 114.307220,424.725098 
	C117.941925,432.589691 123.656197,436.672424 132.725464,436.135437 
	C139.820328,435.715363 146.978302,435.727600 154.075302,436.129578 
	C164.070999,436.695709 170.582779,432.571899 173.801727,423.537231 
	C173.876144,436.321960 173.956726,448.651764 173.821762,460.979187 
	C173.703323,471.798981 166.725922,478.661682 155.900421,478.932617 
	C153.906525,478.982513 151.914383,479.102020 149.921432,479.189392 
	C149.921432,479.189392 149.563232,479.124451 148.898407,479.079041 
	C142.784363,479.040894 137.335159,479.048157 131.885925,479.055420 
	C126.008530,475.284119 120.131134,471.512787 114.125870,466.951538 
	C113.948456,457.312500 113.898903,448.463348 113.849342,439.614197 
z"/>
<path fill="#FB9460" opacity="1.000000" stroke="none" 
	d="
M113.570648,439.820312 
	C113.898903,448.463348 113.948456,457.312500 113.987495,466.638550 
	C109.334709,463.573853 104.692444,460.032227 99.818924,456.200867 
	C104.155762,450.616211 108.723862,445.321320 113.570648,439.820312 
z"/>
<path fill="#FA9560" opacity="1.000000" stroke="none" 
	d="
M132.050537,479.372375 
	C137.335159,479.048157 142.784363,479.040894 148.717926,479.055481 
	C148.169250,481.451172 147.136230,483.825073 145.939285,486.511780 
	C141.255280,484.446198 136.735199,482.067749 132.050537,479.372375 
z"/>
<path fill="#73C3F9" opacity="1.000000" stroke="none" 
	d="
M384.056213,57.907974 
	C396.419434,67.160355 408.964813,76.181068 421.100891,85.722366 
	C437.134064,98.327553 449.556610,114.312317 460.864716,131.040802 
	C478.343079,156.897186 490.137024,185.266846 497.073151,215.762939 
	C502.472839,239.503754 502.966827,263.558929 501.739227,287.560669 
	C500.551025,310.792114 494.722656,333.327576 486.882294,355.262360 
	C486.395935,356.623138 485.621246,357.880859 484.677063,359.306274 
	C483.624084,357.583374 482.783936,355.771851 482.139984,353.893097 
	C477.437531,340.173706 469.070038,329.619965 455.544373,323.805389 
	C446.535187,319.932434 437.115051,316.965607 428.284454,312.744659 
	C422.379944,309.922302 416.059296,306.585083 411.899475,301.771790 
	C401.616028,289.872772 395.665253,275.430115 396.304901,259.652863 
	C396.783875,247.838730 399.822510,236.097549 402.089478,224.395203 
	C404.486694,212.020538 408.558624,199.840546 409.667908,187.376953 
	C411.275146,169.318680 403.477783,153.760300 392.989075,139.418991 
	C389.876801,135.163498 387.319214,130.407990 385.108826,125.604851 
	C378.452240,111.140564 377.607178,95.731743 379.223633,80.238945 
	C380.009277,72.709190 382.394897,65.346367 384.056213,57.907974 
z"/>
<path fill="#49B1F6" opacity="1.000000" stroke="none" 
	d="
M383.900757,57.586639 
	C382.394897,65.346367 380.009277,72.709190 379.223633,80.238945 
	C377.607178,95.731743 378.452240,111.140564 385.108826,125.604851 
	C387.319214,130.407990 389.876801,135.163498 392.989075,139.418991 
	C403.477783,153.760300 411.275146,169.318680 409.667908,187.376953 
	C408.558624,199.840546 404.486694,212.020538 402.089478,224.395203 
	C399.822510,236.097549 396.783875,247.838730 396.304901,259.652863 
	C395.665253,275.430115 401.616028,289.872772 411.899475,301.771790 
	C416.059296,306.585083 422.379944,309.922302 428.284454,312.744659 
	C437.115051,316.965607 446.535187,319.932434 455.544373,323.805389 
	C469.070038,329.619965 477.437531,340.173706 482.139984,353.893097 
	C482.783936,355.771851 483.624084,357.583374 484.602661,359.678986 
	C479.388885,370.939636 473.945892,381.947357 467.934448,392.893738 
	C466.200439,389.551117 465.125122,386.234467 463.854950,382.994202 
	C454.575439,359.321655 439.451172,340.988220 413.929779,334.954376 
	C398.677917,331.348480 383.672272,328.056305 370.216705,319.118774 
	C370.075775,293.708618 370.029236,268.718933 370.204346,243.490906 
	C371.925415,240.250061 374.414429,237.343567 374.716980,234.224945 
	C375.334900,227.854828 374.776581,221.370605 374.768433,214.473389 
	C374.866364,206.251007 374.682709,198.479797 374.998627,190.728958 
	C375.255249,184.433197 372.747894,180.274109 366.962891,177.580612 
	C367.436432,169.655151 364.234436,164.509277 357.188660,161.437622 
	C357.681610,155.145966 355.899872,150.422928 350.376678,147.614487 
	C356.463654,120.161545 359.115387,92.567368 349.900787,65.389381 
	C346.481506,55.304520 340.401398,46.121807 335.800476,36.229004 
	C343.751007,38.815418 351.606964,41.320724 359.075104,44.686447 
	C367.480865,48.474754 375.537018,53.038734 383.900757,57.586639 
z"/>
<path fill="#88CE65" opacity="1.000000" stroke="none" 
	d="
M370.311127,319.539215 
	C383.672272,328.056305 398.677917,331.348480 413.929779,334.954376 
	C439.451172,340.988220 454.575439,359.321655 463.854950,382.994202 
	C465.125122,386.234467 466.200439,389.551117 467.625610,393.106567 
	C461.094513,403.250244 454.472321,413.241974 447.442230,422.937988 
	C443.889923,427.837433 439.599426,432.201721 435.333801,436.556152 
	C430.803955,427.195618 426.973022,417.878632 422.252106,409.036865 
	C417.551849,400.233734 410.099823,396.117981 399.622375,398.778687 
	C397.783539,393.045898 393.627441,389.854858 389.051697,386.645630 
	C386.473358,376.246979 379.774994,370.925964 369.501068,370.817108 
	C365.377106,370.773407 361.251892,370.850098 356.897461,370.644592 
	C354.961273,368.607574 353.254822,366.797913 351.715546,364.623535 
	C362.967468,351.388763 368.925751,336.406219 370.311127,319.539215 
z"/>
<path fill="#FEAA7B" opacity="1.000000" stroke="none" 
	d="
M364.820129,479.084961 
	C362.771423,479.059875 360.722748,479.034821 357.854492,478.997589 
	C345.482880,477.309814 340.230835,471.237152 340.158325,459.520020 
	C340.110046,451.717651 340.022827,443.915558 339.976562,435.638367 
	C339.918793,431.894684 339.837524,428.625977 339.826447,425.070740 
	C340.027557,424.210785 340.158417,423.637329 340.472321,423.339478 
	C344.246948,433.027496 348.558533,436.026184 358.587555,436.047302 
	C365.875824,436.062683 373.198029,435.607269 380.444153,436.160278 
	C390.176910,436.903046 396.158173,432.485504 399.890717,424.448120 
	C400.018860,429.813568 400.084320,434.716309 400.111908,440.117859 
	C400.056030,449.450043 400.038055,458.283417 400.020081,467.116821 
	C394.288971,471.072510 388.557892,475.028229 381.996094,479.004333 
	C375.716919,479.044830 370.268524,479.064880 364.820129,479.084961 
z"/>
<path fill="#70AF46" opacity="1.000000" stroke="none" 
	d="
M400.149811,439.619080 
	C400.084320,434.716309 400.018860,429.813568 399.945068,423.984436 
	C399.905090,415.051361 399.873413,407.044678 399.841705,399.037994 
	C410.099823,396.117981 417.551849,400.233734 422.252106,409.036865 
	C426.973022,417.878632 430.803955,427.195618 435.026398,436.711060 
	C428.561676,443.336548 422.095428,449.555359 415.148468,455.643127 
	C409.828430,450.214417 404.989136,444.916748 400.149811,439.619080 
z"/>
<path fill="#FB9460" opacity="1.000000" stroke="none" 
	d="
M400.111908,440.117859 
	C404.989136,444.916748 409.828430,450.214417 414.850037,455.797607 
	C410.266144,459.725494 405.499969,463.367828 400.376953,467.063477 
	C400.038055,458.283417 400.056030,449.450043 400.111908,440.117859 
z"/>
<path fill="#FA9560" opacity="1.000000" stroke="none" 
	d="
M364.915833,479.426544 
	C370.268524,479.064880 375.716919,479.044830 381.640137,479.038696 
	C377.691589,481.568390 373.268250,484.084167 368.530609,486.712585 
	C367.148041,484.472870 366.079773,482.120514 364.915833,479.426544 
z"/>
<path fill="#49B1F6" opacity="1.000000" stroke="none" 
	d="
M335.948975,35.642273 
	C335.535614,35.849220 335.015808,35.777088 334.314392,35.411171 
	C334.702698,35.199318 335.272644,35.281254 335.948975,35.642273 
z"/>
<path fill="#FFC7AB" opacity="1.000000" stroke="none" 
	d="
M258.918915,68.585899 
	C273.269348,68.597221 287.423737,69.930275 301.007690,74.966866 
	C317.681458,81.149086 330.848999,95.385902 329.000916,116.653366 
	C328.379517,123.804413 329.628387,130.359787 333.512756,136.630356 
	C335.638611,140.062210 336.373016,144.356018 337.866272,149.070709 
	C338.411530,154.031174 338.825409,158.182068 339.006958,162.624649 
	C336.894989,177.988510 335.015350,193.060669 333.048767,208.519440 
	C329.700623,228.699768 321.985687,246.476395 309.040924,261.907227 
	C308.321014,262.765381 307.990784,263.950439 307.179688,265.079407 
	C301.078278,270.122894 295.289185,275.085510 289.469116,280.011505 
	C286.479736,282.541687 283.321381,282.608093 280.466553,279.959320 
	C273.791107,273.765686 266.623535,267.959167 260.770538,261.050964 
	C246.655762,244.391403 238.663574,224.832443 236.028687,203.167908 
	C234.267166,188.684235 232.557663,174.186005 231.283401,159.654068 
	C230.352036,149.032516 229.655853,138.106079 235.037369,128.382645 
	C239.008026,121.208382 240.474991,113.917801 240.025833,105.910683 
	C239.126419,89.876801 245.922684,77.637268 258.918915,68.585899 
z"/>
<path fill="#FFAA7B" opacity="1.000000" stroke="none" 
	d="
M258.692932,68.420425 
	C245.922684,77.637268 239.126419,89.876801 240.025833,105.910683 
	C240.474991,113.917801 239.008026,121.208382 235.037369,128.382645 
	C229.655853,138.106079 230.352036,149.032516 231.283401,159.654068 
	C232.557663,174.186005 234.267166,188.684235 236.028687,203.167908 
	C238.663574,224.832443 246.655762,244.391403 260.770538,261.050964 
	C266.623535,267.959167 273.791107,273.765686 280.466553,279.959320 
	C283.321381,282.608093 286.479736,282.541687 289.469116,280.011505 
	C295.289185,275.085510 301.078278,270.122894 307.272430,265.523010 
	C308.458008,275.452362 309.817444,284.988220 314.858917,293.333588 
	C316.772888,296.501831 320.328766,298.678223 322.999573,301.607971 
	C314.705444,314.222015 305.031677,325.218140 293.266571,334.139954 
	C277.890381,345.800232 260.692139,349.265869 242.108337,343.844696 
	C243.219803,341.968933 244.252945,340.453705 245.075302,338.831573 
	C251.861053,325.445984 254.809586,311.057251 255.995041,296.241302 
	C256.532990,289.517975 256.265656,290.207397 249.847290,288.786407 
	C242.821014,287.230804 235.397095,285.343750 229.450974,281.554230 
	C221.296158,276.357117 214.369415,269.233032 206.762268,262.637390 
	C205.807190,261.089722 205.093231,259.772552 204.192123,258.599091 
	C192.183502,242.961243 185.021698,225.353195 182.631409,205.392517 
	C182.067749,198.597290 181.783997,192.161636 180.888168,185.812317 
	C179.814255,178.200745 178.218201,170.662842 177.116333,162.767731 
	C177.576889,157.929504 177.769379,153.416611 177.961868,148.903717 
	C180.187408,143.383148 182.559265,137.915451 184.580460,132.321045 
	C185.691010,129.247192 186.832840,125.973099 186.900497,122.766922 
	C187.541275,92.408485 198.316360,78.691765 228.057785,72.082253 
	C237.577133,69.966743 247.440216,69.398010 257.563721,68.048561 
	C258.143219,68.068672 258.305084,68.161804 258.692932,68.420425 
z"/>
<path fill="#FCAB7F" opacity="1.000000" stroke="none" 
	d="
M339.239319,162.332962 
	C338.825409,158.182068 338.411530,154.031174 338.007111,149.413406 
	C341.875183,148.446625 345.733826,147.946716 349.984558,147.530640 
	C355.899872,150.422928 357.681610,155.145966 356.710205,161.454391 
	C350.538727,162.042938 344.889008,162.187943 339.239319,162.332962 
z"/>
<path fill="#F99564" opacity="1.000000" stroke="none" 
	d="
M177.589981,148.826141 
	C177.769379,153.416611 177.576889,157.929504 176.717514,162.669800 
	C170.258270,162.496689 164.465912,162.096191 158.673553,161.695694 
	C158.131409,155.641907 159.599274,150.579620 165.818268,147.528534 
	C169.789963,147.798309 173.504028,148.273438 177.589981,148.826141 
z"/>
<path fill="#6E5879" opacity="1.000000" stroke="none" 
	d="
M150.061630,479.488586 
	C151.914383,479.102020 153.906525,478.982513 155.900421,478.932617 
	C166.725922,478.661682 173.703323,471.798981 173.821762,460.979187 
	C173.956726,448.651764 173.876144,436.321960 173.850693,423.070190 
	C173.916367,418.416565 174.020615,414.685913 174.454926,411.025208 
	C179.393326,415.104218 184.038269,419.072052 188.602005,423.131256 
	C196.762207,430.389374 204.873474,437.702515 213.044540,445.074219 
	C213.083878,445.155762 213.290298,445.168182 213.290298,445.168182 
	C213.290298,445.168182 212.992126,445.005798 212.995483,444.578430 
	C210.870346,434.301758 211.399658,424.825928 217.399307,416.039612 
	C222.758148,415.649719 227.288116,416.037781 231.217529,419.768616 
	C238.196777,426.395142 245.449997,432.735443 252.646042,439.130859 
	C263.311829,448.609924 274.084106,457.969818 284.704041,467.499664 
	C292.851135,474.810608 300.833069,482.305664 308.888458,489.718811 
	C293.219513,489.751740 277.550568,489.784668 261.228149,489.521790 
	C251.590851,480.888184 242.645981,472.507782 233.608444,464.228546 
	C228.238800,459.309357 222.808533,454.445587 217.184006,449.826721 
	C216.312469,449.110992 213.445862,449.237305 212.868530,450.003723 
	C208.528992,455.764496 204.720322,462.155762 205.192368,469.513367 
	C205.629333,476.323883 207.661652,483.032074 208.991409,489.785309 
	C195.518692,489.815247 182.044388,489.981018 168.573883,489.822876 
	C160.808563,489.731689 154.334717,486.776154 150.061630,479.488586 
z"/>
<path fill="#57415E" opacity="1.000000" stroke="none" 
	d="
M339.953033,436.113342 
	C340.022827,443.915558 340.110046,451.717651 340.158325,459.520020 
	C340.230835,471.237152 345.482880,477.309814 357.416016,479.050903 
	C353.823853,486.407745 347.375885,489.562378 339.382233,489.812622 
	C333.577820,489.994232 327.762299,489.822327 321.301239,489.513916 
	C314.005646,483.210236 307.387482,477.170685 300.710419,471.196899 
	C281.291046,453.822968 261.784912,436.545349 242.446793,419.081573 
	C235.124557,412.469055 228.188431,405.405914 216.949799,407.502472 
	C213.432983,399.227905 214.872803,391.843231 219.502319,384.932129 
	C245.359283,408.617584 270.973663,432.087006 296.474670,455.678986 
	C300.132080,459.062592 303.373505,459.405426 307.550751,456.678497 
	C318.261902,449.686157 329.141052,442.951233 339.953033,436.113342 
z"/>
<path fill="#866C92" opacity="1.000000" stroke="none" 
	d="
M216.956543,407.887604 
	C228.188431,405.405914 235.124557,412.469055 242.446793,419.081573 
	C261.784912,436.545349 281.291046,453.822968 300.710419,471.196899 
	C307.387482,477.170685 314.005646,483.210236 320.835632,489.476318 
	C317.287048,489.780212 313.553528,489.827576 309.354248,489.796875 
	C300.833069,482.305664 292.851135,474.810608 284.704041,467.499664 
	C274.084106,457.969818 263.311829,448.609924 252.646042,439.130859 
	C245.449997,432.735443 238.196777,426.395142 231.217529,419.768616 
	C227.288116,416.037781 222.758148,415.649719 216.937012,416.019531 
	C212.364151,416.007751 208.688431,415.770966 205.052658,416.051575 
	C200.536392,416.400177 197.079910,414.894501 193.963760,411.646332 
	C190.984421,408.540741 187.691772,405.691376 184.291061,403.045288 
	C179.791504,399.544250 175.052872,396.350494 170.187347,392.916901 
	C169.300278,392.047913 168.642853,391.286652 167.964264,390.147339 
	C161.918869,384.136749 155.894669,378.504211 149.922256,372.540588 
	C150.129883,371.790131 150.285690,371.370819 150.441498,370.951508 
	C151.718063,369.679474 152.994629,368.407471 154.833618,367.163086 
	C167.259842,377.607605 179.554123,387.583435 190.837082,398.595428 
	C198.436218,406.012146 206.460724,409.795746 216.956543,407.887604 
z"/>
<path fill="#876E92" opacity="1.000000" stroke="none" 
	d="
M209.458282,489.829315 
	C207.661652,483.032074 205.629333,476.323883 205.192368,469.513367 
	C204.720322,462.155762 208.528992,455.764496 212.868530,450.003723 
	C213.445862,449.237305 216.312469,449.110992 217.184006,449.826721 
	C222.808533,454.445587 228.238800,459.309357 233.608444,464.228546 
	C242.645981,472.507782 251.590851,480.888184 260.757812,489.479797 
	C243.935684,489.780182 226.930405,489.826752 209.458282,489.829315 
z"/>
<path fill="#DEEDFE" opacity="1.000000" stroke="none" 
	d="
M158.270782,161.792480 
	C164.465912,162.096191 170.258270,162.496689 176.449432,162.995117 
	C178.218201,170.662842 179.814255,178.200745 180.888168,185.812317 
	C181.783997,192.161636 182.067749,198.597290 182.428696,205.661392 
	C179.016220,211.405975 174.393234,213.583496 168.418610,213.220718 
	C165.296783,213.031158 162.157883,213.122787 159.013855,212.655029 
	C158.669815,204.761734 158.208389,197.303726 158.042160,189.839142 
	C157.856354,181.495056 155.636658,178.908218 147.289536,177.984116 
	C147.277939,168.441635 149.687805,164.775085 158.270782,161.792480 
z"/>
<path fill="#F8DB45" opacity="1.000000" stroke="none" 
	d="
M161.110428,362.800690 
	C150.939392,350.421417 145.464722,336.158966 143.970062,319.799927 
	C143.957932,294.464264 144.030579,269.595245 144.559662,244.291992 
	C147.959457,243.835999 150.902802,243.814240 153.851883,244.283966 
	C153.924698,267.874084 153.991806,290.972687 154.001526,314.521057 
	C154.136185,318.427032 154.106232,321.912689 154.558990,325.334412 
	C156.452240,339.642120 163.477524,351.398804 172.603119,361.894775 
	C168.473175,362.232269 164.791794,362.516479 161.110428,362.800690 
z"/>
<path fill="#D2DCFB" opacity="1.000000" stroke="none" 
	d="
M146.993652,178.187103 
	C155.636658,178.908218 157.856354,181.495056 158.042160,189.839142 
	C158.208389,197.303726 158.669815,204.761734 158.907806,212.882233 
	C158.718948,213.678925 158.623276,213.816010 158.235352,214.082153 
	C151.831985,221.059647 146.840103,220.979477 139.497589,213.914978 
	C139.433960,205.628311 139.296722,197.341293 139.333710,189.055084 
	C139.356674,183.908813 141.687042,180.179871 146.993652,178.187103 
z"/>
<path fill="#B9C8F7" opacity="1.000000" stroke="none" 
	d="
M139.405090,214.382217 
	C146.840103,220.979477 151.831985,221.059647 158.311066,214.548386 
	C158.712799,220.191452 158.625778,225.501648 158.814957,230.802002 
	C158.996628,235.892181 157.677628,240.293396 153.846161,243.792480 
	C150.902802,243.814240 147.959457,243.835999 144.575851,243.808533 
	C140.399094,240.426559 139.006042,236.212357 139.159760,231.277893 
	C139.330231,225.805466 139.271530,220.325912 139.405090,214.382217 
z"/>
<path fill="#FEC7AB" opacity="1.000000" stroke="none" 
	d="
M167.985428,390.525421 
	C168.642853,391.286652 169.300278,392.047913 170.374008,393.261414 
	C171.901825,399.460846 173.013336,405.208069 174.124847,410.955261 
	C174.020615,414.685913 173.916367,418.416565 173.763168,422.614227 
	C170.582779,432.571899 164.070999,436.695709 154.075302,436.129578 
	C146.978302,435.727600 139.820328,435.715363 132.725464,436.135437 
	C123.656197,436.672424 117.941925,432.589691 114.369514,424.262970 
	C114.118774,416.880463 113.915161,409.763336 114.057289,402.653076 
	C114.201561,395.435516 118.434235,390.790161 125.154099,387.230011 
	C133.053680,386.851318 140.223587,386.689972 147.838074,386.519287 
	C155.052261,386.857117 162.181030,385.442139 167.985428,390.525421 
z"/>
<path fill="#46304C" opacity="1.000000" stroke="none" 
	d="
M160.803741,362.967346 
	C164.791794,362.516479 168.473175,362.232269 173.058838,361.950500 
	C180.987854,362.004456 188.012558,362.055939 195.192505,362.393066 
	C203.246506,369.771942 211.145264,376.865173 219.094666,384.156372 
	C219.145325,384.354309 219.223450,384.755402 219.223450,384.755402 
	C214.872803,391.843231 213.432983,399.227905 216.949799,407.502472 
	C206.460724,409.795746 198.436218,406.012146 190.837082,398.595428 
	C179.554123,387.583435 167.259842,377.607605 155.091980,366.998779 
	C156.690964,365.582581 158.594009,364.358276 160.803741,362.967346 
z"/>
<path fill="#FAA97C" opacity="1.000000" stroke="none" 
	d="
M147.393494,386.528625 
	C140.223587,386.689972 133.053680,386.851318 125.409637,387.018311 
	C126.523270,377.542542 133.535431,371.201294 142.955780,370.797546 
	C145.115738,370.704956 147.283875,370.803497 149.944885,370.882782 
	C150.285690,371.370819 150.129883,371.790131 149.663025,372.811218 
	C148.699158,377.784882 148.046326,382.156738 147.393494,386.528625 
z"/>
<path fill="#DEEEFF" opacity="1.000000" stroke="none" 
	d="
M339.006958,162.624649 
	C344.889008,162.187943 350.538727,162.042938 356.666870,161.881165 
	C364.234436,164.509277 367.436432,169.655151 366.577332,177.583527 
	C358.276245,179.325562 356.028717,181.951767 355.999176,189.884384 
	C355.970184,197.670090 355.934387,205.455765 355.442566,213.223450 
	C347.411560,212.760895 339.168030,215.208664 333.135681,208.132843 
	C335.015350,193.060669 336.894989,177.988510 339.006958,162.624649 
z"/>
<path fill="#FEDD41" opacity="1.000000" stroke="none" 
	d="
M370.216705,319.118774 
	C368.925751,336.406219 362.967468,351.388763 351.344177,364.548523 
	C347.559448,363.838562 344.313263,362.838928 341.223816,361.557800 
	C354.556915,348.223206 360.700989,332.329132 360.557739,313.422974 
	C360.584717,289.862579 360.581055,266.761841 361.052673,243.740372 
	C364.346191,243.789536 367.164429,243.759399 369.982697,243.729263 
	C370.029236,268.718933 370.075775,293.708618 370.216705,319.118774 
z"/>
<path fill="#D3DCFB" opacity="1.000000" stroke="none" 
	d="
M355.901581,213.241455 
	C355.934387,205.455765 355.970184,197.670090 355.999176,189.884384 
	C356.028717,181.951767 358.276245,179.325562 366.557983,178.010712 
	C372.747894,180.274109 375.255249,184.433197 374.998627,190.728958 
	C374.682709,198.479797 374.866364,206.251007 374.444519,214.566711 
	C371.302948,216.416733 368.657837,218.075150 365.774445,218.927094 
	C361.219452,220.272934 359.092621,216.068726 355.994873,213.799408 
	C355.930023,213.620667 355.901581,213.241455 355.901581,213.241455 
z"/>
<path fill="#BDC9F7" opacity="1.000000" stroke="none" 
	d="
M356.059692,213.978165 
	C359.092621,216.068726 361.219452,220.272934 365.774445,218.927094 
	C368.657837,218.075150 371.302948,216.416733 374.378845,215.026703 
	C374.776581,221.370605 375.334900,227.854828 374.716980,234.224945 
	C374.414429,237.343567 371.925415,240.250061 370.204346,243.490906 
	C367.164429,243.759399 364.346191,243.789536 360.825836,243.544785 
	C358.731720,240.241455 356.413666,237.294388 356.138824,234.167740 
	C355.551605,227.487183 356.022369,220.713623 356.059692,213.978165 
z"/>
<path fill="#56405E" opacity="1.000000" stroke="none" 
	d="
M341.067108,361.839294 
	C344.313263,362.838928 347.559448,363.838562 351.177002,364.913269 
	C353.254822,366.797913 354.961273,368.607574 357.009247,371.005493 
	C360.049713,376.322662 360.891998,381.340912 359.276672,386.644226 
	C354.968201,387.523193 351.084381,388.433929 347.151367,388.899231 
	C346.830414,381.463898 344.987030,378.174927 340.385376,378.105652 
	C326.601624,377.898132 312.810150,377.912109 299.026947,378.147461 
	C295.334503,378.210510 292.908173,380.488800 292.958313,384.630310 
	C293.004517,388.450409 292.921509,392.272034 292.965210,396.092194 
	C293.035309,402.218658 294.826965,403.998718 301.099854,404.013580 
	C314.056915,404.044220 327.014160,404.005981 340.051758,404.458740 
	C340.184570,410.968903 340.236938,417.016388 340.289276,423.063904 
	C340.158417,423.637329 340.027557,424.210785 339.471191,425.194397 
	C330.273682,429.626953 321.294312,433.261444 312.799286,437.802032 
	C306.687378,441.068878 302.404999,440.037292 297.185272,435.762665 
	C272.586975,415.618286 247.661362,395.873566 222.780624,375.780151 
	C222.433304,375.230835 222.157883,374.887695 221.907593,374.078186 
	C221.484100,369.150177 222.748795,365.289429 226.433243,362.054321 
	C255.615311,361.931366 284.329834,361.867462 313.505249,361.863831 
	C322.999817,361.895874 332.033447,361.867584 341.067108,361.839294 
z"/>
<path fill="#FFC7AB" opacity="1.000000" stroke="none" 
	d="
M340.472321,423.339478 
	C340.236938,417.016388 340.184570,410.968903 340.141663,404.077393 
	C340.386017,397.530334 343.035461,393.052826 347.200592,389.344635 
	C351.084381,388.433929 354.968201,387.523193 359.755554,386.721741 
	C370.127686,386.897217 379.596222,386.963440 389.064758,387.029663 
	C393.627441,389.854858 397.783539,393.045898 399.622375,398.778687 
	C399.873413,407.044678 399.905090,415.051361 399.882416,423.521759 
	C396.158173,432.485504 390.176910,436.903046 380.444153,436.160278 
	C373.198029,435.607269 365.875824,436.062683 358.587555,436.047302 
	C348.558533,436.026184 344.246948,433.027496 340.472321,423.339478 
z"/>
<path fill="#FCAA7C" opacity="1.000000" stroke="none" 
	d="
M389.051697,386.645630 
	C379.596222,386.963440 370.127686,386.897217 360.180267,386.753479 
	C360.891998,381.340912 360.049713,376.322662 357.239014,371.232910 
	C361.251892,370.850098 365.377106,370.773407 369.501068,370.817108 
	C379.774994,370.925964 386.473358,376.246979 389.051697,386.645630 
z"/>
<path fill="#FC7085" opacity="1.000000" stroke="none" 
	d="
M222.852509,375.986298 
	C247.661362,395.873566 272.586975,415.618286 297.185272,435.762665 
	C302.404999,440.037292 306.687378,441.068878 312.799286,437.802032 
	C321.294312,433.261444 330.273682,429.626953 339.400970,425.480957 
	C339.837524,428.625977 339.918793,431.894684 339.976562,435.638367 
	C329.141052,442.951233 318.261902,449.686157 307.550751,456.678497 
	C303.373505,459.405426 300.132080,459.062592 296.474670,455.678986 
	C270.973663,432.087006 245.359283,408.617584 219.502319,384.932129 
	C219.223450,384.755402 219.145325,384.354309 219.093826,383.777161 
	C220.312378,380.795471 221.582443,378.390869 222.852509,375.986298 
z"/>
<path fill="#4AB1F6" opacity="1.000000" stroke="none" 
	d="
M355.994873,213.799408 
	C356.022369,220.713623 355.551605,227.487183 356.138824,234.167740 
	C356.413666,237.294388 358.731720,240.241455 360.350586,243.465500 
	C360.581055,266.761841 360.584717,289.862579 360.234680,313.409332 
	C358.612274,313.532776 357.343597,313.210175 355.951416,312.562012 
	C354.381104,311.015045 353.123322,309.304443 351.453796,308.659332 
	C345.157684,306.226349 338.795349,303.906311 332.316956,302.030304 
	C329.429077,301.194000 326.206787,301.512360 323.136292,301.306671 
	C320.328766,298.678223 316.772888,296.501831 314.858917,293.333588 
	C309.817444,284.988220 308.458008,275.452362 307.571930,265.426941 
	C307.990784,263.950439 308.321014,262.765381 309.040924,261.907227 
	C321.985687,246.476395 329.700623,228.699768 333.048767,208.519440 
	C339.168030,215.208664 347.411560,212.760895 355.442566,213.223450 
	C355.901581,213.241455 355.930023,213.620667 355.994873,213.799408 
z"/>
<path fill="#4AB1F6" opacity="1.000000" stroke="none" 
	d="
M153.851883,244.283966 
	C157.677628,240.293396 158.996628,235.892181 158.814957,230.802002 
	C158.625778,225.501648 158.712799,220.191452 158.603333,214.419327 
	C158.623276,213.816010 158.718948,213.678925 158.920654,213.314636 
	C162.157883,213.122787 165.296783,213.031158 168.418610,213.220718 
	C174.393234,213.583496 179.016220,211.405975 182.437531,206.059189 
	C185.021698,225.353195 192.183502,242.961243 204.192123,258.599091 
	C205.093231,259.772552 205.807190,261.089722 206.630493,263.031738 
	C204.723343,272.584351 203.165298,281.549469 200.720154,290.265747 
	C199.330353,295.220032 196.282883,299.578217 190.394745,301.194153 
	C189.162094,300.995331 188.250198,300.616516 187.528748,300.843353 
	C178.391068,303.716522 169.257111,306.607727 160.197189,309.713135 
	C159.200287,310.054840 158.667801,311.751495 157.587128,312.891846 
	C156.189194,313.333069 155.124054,313.702179 154.058914,314.071320 
	C153.991806,290.972687 153.924698,267.874084 153.851883,244.283966 
z"/>
<path fill="#B4D567" opacity="1.000000" stroke="none" 
	d="
M322.999573,301.607971 
	C326.206787,301.512360 329.429077,301.194000 332.316956,302.030304 
	C338.795349,303.906311 345.157684,306.226349 351.453796,308.659332 
	C353.123322,309.304443 354.381104,311.015045 355.695404,312.792969 
	C354.715302,314.583008 353.803467,315.777527 353.029877,317.055756 
	C342.492035,334.467651 328.988708,349.225159 313.044342,361.803528 
	C284.329834,361.867462 255.615311,361.931366 225.989960,361.992798 
	C222.398315,361.923279 219.717499,361.856232 217.053070,361.422913 
	C218.510834,353.202972 223.328583,348.428650 230.816025,346.230835 
	C233.804657,345.353577 236.888977,344.802368 240.263931,344.088867 
	C241.042862,344.101929 241.487595,344.128784 241.932343,344.155640 
	C260.692139,349.265869 277.890381,345.800232 293.266571,334.139954 
	C305.031677,325.218140 314.705444,314.222015 322.999573,301.607971 
z"/>
<path fill="#FB9460" opacity="1.000000" stroke="none" 
	d="
M242.108337,343.844666 
	C241.487595,344.128784 241.042862,344.101929 239.940094,343.919464 
	C233.646713,341.012573 227.503586,338.970551 222.475403,335.371033 
	C209.675613,326.208038 199.361938,314.514618 190.804001,301.295624 
	C196.282883,299.578217 199.330353,295.220032 200.720154,290.265747 
	C203.165298,281.549469 204.723343,272.584351 206.784622,263.329071 
	C214.369415,269.233032 221.296158,276.357117 229.450974,281.554230 
	C235.397095,285.343750 242.821014,287.230804 249.847290,288.786407 
	C256.265656,290.207397 256.532990,289.517975 255.995041,296.241302 
	C254.809586,311.057251 251.861053,325.445984 245.075302,338.831573 
	C244.252945,340.453705 243.219803,341.968933 242.108337,343.844666 
z"/>
<path fill="#57415F" opacity="1.000000" stroke="none" 
	d="
M174.454926,411.025208 
	C173.013336,405.208069 171.901825,399.460846 170.603638,393.369141 
	C175.052872,396.350494 179.791504,399.544250 184.291061,403.045288 
	C187.691772,405.691376 190.984421,408.540741 193.963760,411.646332 
	C197.079910,414.894501 200.536392,416.400177 205.052658,416.051575 
	C208.688431,415.770966 212.364151,416.007751 216.484436,416.035034 
	C211.399658,424.825928 210.870346,434.301758 212.999390,444.575531 
	C212.999908,445.000000 213.005188,444.992676 213.005188,444.992676 
	C204.873474,437.702515 196.762207,430.389374 188.602005,423.131256 
	C184.038269,419.072052 179.393326,415.104218 174.454926,411.025208 
z"/>
<path fill="#57415F" opacity="1.000000" stroke="none" 
	d="
M212.996017,445.002899 
	C212.992126,445.005798 213.290298,445.168182 213.290298,445.168182 
	C213.290298,445.168182 213.083878,445.155762 213.044525,445.074219 
	C213.005188,444.992676 212.999908,445.000000 212.996017,445.002899 
z"/>
<path fill="#57415F" opacity="1.000000" stroke="none" 
	d="
M147.838074,386.519287 
	C148.046326,382.156738 148.699158,377.784882 149.611237,373.142334 
	C155.894669,378.504211 161.918869,384.136749 167.964264,390.147339 
	C162.181030,385.442139 155.052261,386.857117 147.838074,386.519287 
z"/>
<path fill="#70AF46" opacity="1.000000" stroke="none" 
	d="
M154.001526,314.521057 
	C155.124054,313.702179 156.189194,313.333069 157.835190,313.136780 
	C169.698166,331.965271 183.671616,348.262329 200.448425,361.807037 
	C198.370453,361.950409 196.703857,362.028931 195.037262,362.107422 
	C188.012558,362.055939 180.987854,362.004456 173.507416,361.897217 
	C163.477524,351.398804 156.452240,339.642120 154.558990,325.334412 
	C154.106232,321.912689 154.136185,318.427032 154.001526,314.521057 
z"/>
<path fill="#F94155" opacity="1.000000" stroke="none" 
	d="
M195.192505,362.393066 
	C196.703857,362.028931 198.370453,361.950409 200.865112,361.872314 
	C203.336960,361.977600 204.980713,362.082428 206.828445,362.463379 
	C211.982422,366.674500 216.932434,370.609528 221.882446,374.544556 
	C222.157883,374.887695 222.433304,375.230835 222.780609,375.780151 
	C221.582443,378.390869 220.312378,380.795471 219.043182,383.579224 
	C211.145264,376.865173 203.246506,369.771942 195.192505,362.393066 
z"/>
<path fill="#8ACD6A" opacity="1.000000" stroke="none" 
	d="
M313.505249,361.863861 
	C328.988708,349.225159 342.492035,334.467651 353.029877,317.055756 
	C353.803467,315.777527 354.715302,314.583008 355.818878,313.118591 
	C357.343597,313.210175 358.612274,313.532776 360.204041,313.868988 
	C360.700989,332.329132 354.556915,348.223206 341.223816,361.557770 
	C332.033447,361.867584 322.999817,361.895874 313.505249,361.863861 
z"/>
<path fill="#35253B" opacity="1.000000" stroke="none" 
	d="
M347.151367,388.899231 
	C343.035461,393.052826 340.386017,397.530334 340.061218,403.614746 
	C327.014160,404.005981 314.056915,404.044220 301.099854,404.013580 
	C294.826965,403.998718 293.035309,402.218658 292.965210,396.092194 
	C292.921509,392.272034 293.004517,388.450409 292.958313,384.630310 
	C292.908173,380.488800 295.334503,378.210510 299.026947,378.147461 
	C312.810150,377.912109 326.601624,377.898132 340.385376,378.105652 
	C344.987030,378.174927 346.830414,381.463898 347.151367,388.899231 
M323.702728,389.083496 
	C322.281036,386.023346 319.829681,384.115631 316.609680,385.296539 
	C314.763855,385.973450 312.852722,388.061401 312.163605,389.949371 
	C310.981201,393.188965 313.780365,396.613770 317.233795,397.011566 
	C321.159760,397.463837 323.538879,394.910736 323.702728,389.083496 
M329.138489,392.986847 
	C330.965149,396.664276 334.049805,398.514618 337.519531,396.168915 
	C339.312897,394.956482 340.920715,391.230255 340.331329,389.357849 
	C339.732788,387.456390 336.339630,385.307343 334.148346,385.283508 
	C330.309967,385.241699 328.589996,388.281189 329.138489,392.986847 
M301.050262,390.640289 
	C302.465118,391.699554 303.879944,392.758820 305.294739,393.818085 
	C305.697662,392.292999 306.924622,390.215302 306.344147,389.349731 
	C304.797791,387.043884 302.764221,387.675201 301.050262,390.640289 
z"/>
<path fill="#47314C" opacity="1.000000" stroke="none" 
	d="
M221.907593,374.078186 
	C216.932434,370.609528 211.982422,366.674500 207.309418,362.384735 
	C210.736511,361.949707 213.886597,361.869476 217.036682,361.789215 
	C219.717499,361.856232 222.398315,361.923279 225.522415,362.051880 
	C222.748795,365.289429 221.484100,369.150177 221.907593,374.078186 
z"/>
<path fill="#88CE65" opacity="1.000000" stroke="none" 
	d="
M217.053070,361.422913 
	C213.886597,361.869476 210.736511,361.949707 207.105453,362.108582 
	C204.980713,362.082428 203.336960,361.977600 201.276505,361.807495 
	C183.671616,348.262329 169.698166,331.965271 158.167984,313.064697 
	C158.667801,311.751495 159.200287,310.054840 160.197189,309.713135 
	C169.257111,306.607727 178.391068,303.716522 187.528748,300.843353 
	C188.250198,300.616516 189.162094,300.995331 190.394745,301.194153 
	C199.361938,314.514618 209.675613,326.208038 222.475403,335.371033 
	C227.503586,338.970551 233.646713,341.012573 239.605927,343.933289 
	C236.888977,344.802368 233.804657,345.353577 230.816025,346.230835 
	C223.328583,348.428650 218.510834,353.202972 217.053070,361.422913 
z"/>
<path fill="#CDD5F4" opacity="1.000000" stroke="none" 
	d="
M323.806702,389.464966 
	C323.538879,394.910736 321.159760,397.463837 317.233795,397.011566 
	C313.780365,396.613770 310.981201,393.188965 312.163605,389.949371 
	C312.852722,388.061401 314.763855,385.973450 316.609680,385.296539 
	C319.829681,384.115631 322.281036,386.023346 323.806702,389.464966 
z"/>
<path fill="#CDD6F4" opacity="1.000000" stroke="none" 
	d="
M329.062073,392.591248 
	C328.589996,388.281189 330.309967,385.241699 334.148346,385.283508 
	C336.339630,385.307343 339.732788,387.456390 340.331329,389.357849 
	C340.920715,391.230255 339.312897,394.956482 337.519531,396.168915 
	C334.049805,398.514618 330.965149,396.664276 329.062073,392.591248 
z"/>
<path fill="#EBCA3F" opacity="1.000000" stroke="none" 
	d="
M301.152039,390.257629 
	C302.764221,387.675201 304.797791,387.043884 306.344147,389.349731 
	C306.924622,390.215302 305.697662,392.292999 305.294739,393.818085 
	C303.879944,392.758820 302.465118,391.699554 301.152039,390.257629 
z"/>
</svg>