<svg version="1.1" id="Layer_1" xmlns="http://www.w3.org/2000/svg" xmlns:xlink="http://www.w3.org/1999/xlink" x="0px" y="0px"
	 width="100%" viewBox="0 0 512 512" enable-background="new 0 0 512 512" xml:space="preserve">
<path fill="#000000" opacity="1.000000" stroke="none" 
	d="
M325.000000,1.000001 
	C387.637115,1.000000 450.274261,1.000000 512.955688,1.000000 
	C512.955688,171.556625 512.955688,342.113281 512.955688,513.000000 
	C438.312225,513.000000 363.623962,513.000000 288.388611,512.582764 
	C289.325592,511.776672 290.796783,511.326935 292.296021,511.009460 
	C298.553375,509.684540 304.819153,508.399292 311.496460,507.076233 
	C332.049194,502.997070 351.240295,496.369385 369.381592,485.975037 
	C370.805969,485.324738 371.905792,484.708923 373.358521,484.021851 
	C374.027100,483.852875 374.370483,483.805695 374.654510,483.650085 
	C405.286804,466.874084 431.176819,444.532379 452.402313,416.850708 
	C456.143921,411.970978 458.854218,406.300446 462.387207,400.954681 
	C472.988739,387.347717 480.211395,372.220245 486.079041,356.030396 
	C498.932953,322.980652 503.716675,288.949188 501.922607,253.475098 
	C499.921295,239.345840 497.864166,225.653854 495.863037,211.565643 
	C495.661804,210.581039 495.360016,210.007797 495.153778,209.402054 
	C490.205383,194.867264 486.123016,179.964386 480.122040,165.878738 
	C471.601898,145.879944 460.402771,127.202446 445.502045,111.200623 
	C433.982971,98.830307 422.279419,86.476173 409.463470,75.510880 
	C395.396484,63.475273 379.333954,54.053154 362.164368,46.062668 
	C353.591492,42.621475 345.347076,39.275784 337.059113,35.471954 
	C337.012177,32.192471 337.289062,29.337299 336.953430,26.556040 
	C335.898590,17.814899 334.707886,9.071830 326.808624,3.261464 
	C326.057617,2.709044 325.595978,1.763201 325.000000,1.000001 
z"/>
<path fill="#000000" opacity="1.000000" stroke="none" 
	d="
M226.000000,513.000000 
	C151.038040,513.000000 76.076065,513.000000 1.063001,513.000000 
	C1.063001,342.333344 1.063001,171.666656 1.063001,1.000000 
	C42.771561,1.000000 84.417122,1.000000 126.854233,1.268642 
	C124.776436,4.272991 120.611374,6.483447 119.253929,9.832047 
	C111.975388,27.786953 113.369781,45.582520 121.666977,63.013054 
	C102.652084,75.970612 85.213821,90.195084 70.587029,108.082375 
	C69.202316,109.655045 68.168266,111.114388 67.034248,112.491409 
	C48.899265,134.512314 35.085953,158.954590 25.593332,185.871429 
	C16.422663,211.875381 11.318260,238.543625 12.017387,266.194061 
	C12.247211,275.283600 12.007607,284.455078 13.175534,293.433929 
	C14.818268,306.063049 17.573067,318.547546 19.915966,331.488464 
	C20.320192,333.280640 20.518867,334.731873 21.023617,336.067444 
	C25.323215,347.443909 29.678413,358.799408 34.021667,370.521149 
	C40.772694,382.813446 46.561817,395.433441 54.512711,406.500336 
	C64.002960,419.709930 75.344452,431.589508 86.017548,444.363403 
	C98.367165,455.796814 110.809151,466.654541 125.168968,474.969635 
	C134.292969,480.252930 143.677887,485.085602 153.105942,490.448792 
	C175.930984,500.891296 199.383682,508.236359 224.138718,511.078888 
	C224.823654,511.157532 225.382401,512.334961 226.000000,513.000000 
z"/>
<path fill="#6E5779" opacity="1.000000" stroke="none" 
	d="
M311.081848,507.099518 
	C304.819153,508.399292 298.553375,509.684540 292.296021,511.009460 
	C290.796783,511.326935 289.325592,511.776672 287.920746,512.582764 
	C269.979095,513.000000 251.958206,513.000000 233.058014,512.922607 
	C231.201645,511.314331 230.472595,509.526764 229.202332,508.299286 
	C224.895599,504.137421 222.710434,499.485504 224.917679,493.507904 
	C226.971298,487.946320 231.158203,485.333282 238.341431,485.253784 
	C244.667679,485.183777 250.995300,485.237885 257.322327,485.237305 
	C259.630005,485.237122 261.937653,485.237335 264.245331,485.237335 
	C252.837143,478.427124 248.416245,469.019836 248.517502,456.455872 
	C248.796585,421.825989 248.619919,387.192413 248.598511,352.560303 
	C248.597168,350.407776 248.379913,348.255402 248.404114,345.648499 
	C248.456284,328.436401 248.367447,311.678741 248.400833,294.474823 
	C248.570541,290.047974 248.631699,286.067505 248.663177,282.086731 
	C248.804291,264.243927 260.271057,253.341156 278.061279,254.542511 
	C283.933105,277.809601 289.738892,300.704102 295.673981,323.565033 
	C298.929047,336.103027 302.402283,348.584351 305.797211,361.508179 
	C306.106354,363.721710 306.261047,365.552216 306.704193,367.309998 
	C316.650696,406.765228 326.628967,446.212433 336.103455,485.761108 
	C329.662506,485.919983 323.719238,485.973846 317.776154,486.039368 
	C312.353882,486.099152 311.115326,487.223877 310.995117,492.736420 
	C310.890747,497.521210 311.042999,502.311615 311.081848,507.099518 
z"/>
<path fill="#DEEDFE" opacity="1.000000" stroke="none" 
	d="
M248.263123,346.102936 
	C248.379913,348.255402 248.597168,350.407776 248.598511,352.560303 
	C248.619919,387.192413 248.796585,421.825989 248.517502,456.455872 
	C248.416245,469.019836 252.837143,478.427124 264.245331,485.237335 
	C261.937653,485.237335 259.630005,485.237122 257.322327,485.237305 
	C250.995300,485.237885 244.667679,485.183777 238.341431,485.253784 
	C231.158203,485.333282 226.971298,487.946320 224.917679,493.507904 
	C222.710434,499.485504 224.895599,504.137421 229.202332,508.299286 
	C230.472595,509.526764 231.201645,511.314331 232.589355,512.922607 
	C230.958328,513.000000 228.916672,513.000000 226.437500,513.000000 
	C225.382401,512.334961 224.823654,511.157532 224.138718,511.078888 
	C199.383682,508.236359 175.930984,500.891296 153.116959,489.972870 
	C152.998291,462.149567 153.028732,435.130676 153.431030,408.073303 
	C158.504211,407.370911 160.075912,404.347565 160.050034,399.964478 
	C160.012817,393.663239 160.094025,387.361328 160.435059,380.960876 
	C165.820877,375.911804 170.588181,370.588135 176.037643,366.091156 
	C186.497482,357.459473 198.897980,352.316620 211.865982,347.675079 
	C213.124039,347.501282 214.036301,347.374573 215.384888,347.435638 
	C226.635178,347.116577 237.449158,346.609772 248.263123,346.102936 
z"/>
<path fill="#000000" opacity="1.000000" stroke="none" 
	d="
M144.000000,0.999999 
	C198.354233,1.000000 252.708450,1.000000 307.856567,1.290866 
	C308.189301,2.029364 307.805389,2.704656 307.255707,2.891114 
	C295.563812,6.857073 286.630829,14.400600 279.143677,23.832062 
	C263.503265,23.632626 248.136978,23.536459 232.792191,24.064676 
	C214.245377,24.703117 196.467560,29.487936 178.599747,34.986412 
	C178.105820,34.002670 178.107727,33.106510 177.725159,32.426720 
	C170.103195,18.882788 159.764725,8.355546 144.861420,2.880269 
	C144.405548,2.712786 144.279709,1.646988 144.000000,0.999999 
z"/>
<path fill="#FD86CD" opacity="1.000000" stroke="none" 
	d="
M279.427368,24.211979 
	C286.630829,14.400600 295.563812,6.857073 307.255707,2.891114 
	C307.805389,2.704656 308.189301,2.029364 308.325195,1.290866 
	C313.354919,1.000000 318.709869,1.000000 324.532410,1.000001 
	C325.595978,1.763201 326.057617,2.709044 326.808624,3.261464 
	C334.707886,9.071830 335.898590,17.814899 336.953430,26.556040 
	C337.289062,29.337299 337.012177,32.192471 336.963806,35.871788 
	C336.600525,38.684757 336.342773,40.650108 335.968658,42.593056 
	C333.847565,53.609119 330.136658,63.881542 322.027679,71.684448 
	C322.661469,69.237762 323.234985,67.158821 323.970093,65.138702 
	C327.369019,55.798508 328.098969,46.407860 324.847992,36.848595 
	C322.002716,28.482256 314.928314,25.350208 306.687317,28.657719 
	C289.993530,35.357754 280.648376,47.883347 278.316528,65.389702 
	C276.878967,76.182251 279.321533,85.502266 288.729340,90.271942 
	C287.669769,90.502472 286.819672,90.697227 286.077484,90.495300 
	C274.147400,87.249550 268.245148,78.236320 267.973938,62.476067 
	C268.597626,56.246830 269.212738,50.466873 270.041321,44.349590 
	C273.312317,37.412170 276.369843,30.812077 279.427368,24.211979 
z"/>
<path fill="#FC90CE" opacity="1.000000" stroke="none" 
	d="
M143.625000,0.999999 
	C144.279709,1.646988 144.405548,2.712786 144.861420,2.880269 
	C159.764725,8.355546 170.103195,18.882788 177.725159,32.426720 
	C178.107727,33.106510 178.105820,34.002670 178.592880,35.301830 
	C178.876999,36.225273 178.851166,36.644970 178.621140,37.353951 
	C176.963394,45.254017 175.205383,46.817917 167.623962,46.823093 
	C160.479248,36.385521 151.368286,29.360403 138.954330,26.672039 
	C137.262711,22.882364 134.992630,19.590942 134.136307,15.965585 
	C132.612503,9.514450 137.273453,5.349546 141.000000,1.000000 
	C141.750000,1.000000 142.500000,1.000000 143.625000,0.999999 
z"/>
<path fill="#FF7ACB" opacity="1.000000" stroke="none" 
	d="
M140.535355,1.000000 
	C137.273453,5.349546 132.612503,9.514450 134.136307,15.965585 
	C134.992630,19.590942 137.262711,22.882364 138.590729,26.731136 
	C133.110840,28.300886 128.867584,30.760899 127.214928,36.111687 
	C125.029755,43.186615 123.927032,50.404560 125.910378,57.748272 
	C127.203217,62.535233 128.618164,67.289215 129.661255,71.937424 
	C126.892204,68.833054 124.440315,65.849236 121.988434,62.865417 
	C113.369781,45.582520 111.975388,27.786953 119.253929,9.832047 
	C120.611374,6.483447 124.776436,4.272991 127.322891,1.268642 
	C131.356903,1.000000 135.713806,1.000000 140.535355,1.000000 
z"/>
<path fill="#45304C" opacity="1.000000" stroke="none" 
	d="
M462.040771,400.995117 
	C458.854218,406.300446 456.143921,411.970978 452.402313,416.850708 
	C431.176819,444.532379 405.286804,466.874084 374.654510,483.650085 
	C374.370483,483.805695 374.027100,483.852875 373.309113,483.665039 
	C366.242218,475.230804 365.815948,465.723145 365.860535,455.668701 
	C366.122101,396.704376 366.196655,337.736938 365.800720,278.774109 
	C365.728027,267.949341 369.439545,260.165680 378.405518,254.090912 
	C402.547852,254.054779 426.220520,254.074677 449.928680,254.505585 
	C455.839172,288.868530 461.802582,322.805725 467.482208,356.790344 
	C468.227783,361.251465 468.035889,366.030396 467.381317,370.531708 
	C465.898407,380.729401 463.855804,390.845703 462.040771,400.995117 
z"/>
<path fill="#9589E8" opacity="1.000000" stroke="none" 
	d="
M362.492828,46.158169 
	C379.333954,54.053154 395.396484,63.475273 409.463470,75.510880 
	C422.279419,86.476173 433.982971,98.830307 445.502045,111.200623 
	C460.402771,127.202446 471.601898,145.879944 480.122040,165.878738 
	C486.123016,179.964386 490.205383,194.867264 495.153778,209.402054 
	C495.360016,210.007797 495.661804,210.581039 495.523163,211.630157 
	C492.106201,213.828781 489.103180,215.598953 486.060974,217.299011 
	C472.064697,225.120499 457.741943,230.677933 441.007904,228.217972 
	C413.119324,224.118286 391.774841,203.497208 388.071747,175.630692 
	C384.643860,149.834763 376.289581,125.951927 361.615356,104.329208 
	C349.886749,87.046936 352.219727,62.939400 362.492828,46.158169 
z"/>
<path fill="#7E6DD1" opacity="1.000000" stroke="none" 
	d="
M362.164368,46.062668 
	C352.219727,62.939400 349.886749,87.046936 361.615356,104.329208 
	C376.289581,125.951927 384.643860,149.834763 388.071747,175.630692 
	C391.774841,203.497208 413.119324,224.118286 441.007904,228.217972 
	C457.741943,230.677933 472.064697,225.120499 486.060974,217.299011 
	C489.103180,215.598953 492.106201,213.828781 495.467163,212.026382 
	C497.864166,225.653854 499.921295,239.345840 501.463745,253.503082 
	C486.879303,254.001526 472.809601,254.034698 458.307678,254.057404 
	C455.214752,254.062805 452.553955,254.078690 449.893188,254.094574 
	C426.220520,254.074677 402.547852,254.054779 377.944427,254.035187 
	C365.623657,253.961212 354.233673,253.886948 343.098267,253.587769 
	C348.482788,250.696854 351.967804,246.680054 353.855774,241.038177 
	C360.175446,238.081818 364.173309,233.045502 364.834290,226.816330 
	C365.717743,218.490143 365.763092,209.900650 364.736115,201.601471 
	C363.919189,194.999817 359.369965,189.957581 352.943359,186.684875 
	C351.239960,184.221237 349.670837,182.072205 348.045685,179.463120 
	C347.752716,171.236481 348.860748,163.293396 345.039429,155.545685 
	C344.728058,149.612244 344.629791,144.102432 343.918335,138.672989 
	C341.510071,120.295120 336.164612,102.950035 325.081055,87.387581 
	C322.701202,83.965607 320.396759,80.871666 318.150238,77.497818 
	C318.824524,76.258156 319.440826,75.298393 320.297058,74.176208 
	C320.718628,73.682632 320.900269,73.351471 321.047791,73.018860 
	C321.013672,73.017403 321.028564,73.084061 321.279480,72.993752 
	C321.708405,72.604538 321.886414,72.305641 322.035828,72.017532 
	C322.007263,72.028328 322.041840,72.079285 322.041840,72.079285 
	C330.136658,63.881542 333.847565,53.609119 335.968658,42.593056 
	C336.342773,40.650108 336.600525,38.684757 337.007324,36.329918 
	C345.347076,39.275784 353.591492,42.621475 362.164368,46.062668 
z"/>
<path fill="#34253B" opacity="1.000000" stroke="none" 
	d="
M342.843658,253.812683 
	C354.233673,253.886948 365.623657,253.961212 377.474731,254.091217 
	C369.439545,260.165680 365.728027,267.949341 365.800720,278.774109 
	C366.196655,337.736938 366.122101,396.704376 365.860535,455.668701 
	C365.815948,465.723145 366.242218,475.230804 372.956207,483.736237 
	C371.905792,484.708923 370.805969,485.324738 368.907715,485.973755 
	C360.719482,485.999268 353.329651,485.991516 345.911499,485.583374 
	C339.917755,453.702179 333.846527,422.240936 328.036774,390.731506 
	C325.561554,377.307251 321.061859,364.062256 325.060974,350.010559 
	C327.000824,343.194489 327.612518,336.000427 328.911255,328.578125 
	C333.324402,303.450256 337.651855,278.721802 342.199127,253.965973 
	C342.418945,253.938629 342.843658,253.812683 342.843658,253.812683 
z"/>
<path fill="#55415F" opacity="1.000000" stroke="none" 
	d="
M458.739868,254.067871 
	C472.809601,254.034698 486.879303,254.001526 501.407898,253.940369 
	C503.716675,288.949188 498.932953,322.980652 485.719421,355.934692 
	C482.485443,346.799255 479.809296,337.606110 477.445160,328.333405 
	C471.138428,303.596497 464.965820,278.825378 458.739868,254.067871 
z"/>
<path fill="#49AFF4" opacity="1.000000" stroke="none" 
	d="
M458.307678,254.057404 
	C464.965820,278.825378 471.138428,303.596497 477.445160,328.333405 
	C479.809296,337.606110 482.485443,346.799255 485.378967,356.124390 
	C480.211395,372.220245 472.988739,387.347717 462.387207,400.954712 
	C463.855804,390.845703 465.898407,380.729401 467.381317,370.531708 
	C468.035889,366.030396 468.227783,361.251465 467.482208,356.790344 
	C461.802582,322.805725 455.839172,288.868530 449.928680,254.505585 
	C452.553955,254.078690 455.214752,254.062805 458.307678,254.057404 
z"/>
<path fill="#46324E" opacity="1.000000" stroke="none" 
	d="
M345.939850,485.983795 
	C353.329651,485.991516 360.719482,485.999268 368.583191,486.008270 
	C351.240295,496.369385 332.049194,502.997070 311.496460,507.076233 
	C311.042999,502.311615 310.890747,497.521210 310.995117,492.736420 
	C311.115326,487.223877 312.353882,486.099152 317.776154,486.039368 
	C323.719238,485.973846 329.662506,485.919983 336.472504,485.935699 
	C340.206177,486.001495 343.072998,485.992645 345.939850,485.983795 
z"/>
<path fill="#9589E8" opacity="1.000000" stroke="none" 
	d="
M19.852303,331.093872 
	C17.573067,318.547546 14.818268,306.063049 13.175534,293.433929 
	C12.007607,284.455078 12.247211,275.283600 12.017387,266.194061 
	C11.318260,238.543625 16.422663,211.875381 25.593332,185.871429 
	C35.085953,158.954590 48.899265,134.512314 67.034248,112.491409 
	C68.168266,111.114388 69.202316,109.655045 70.940262,108.145233 
	C72.435143,108.805527 73.554817,109.398651 74.067871,110.327019 
	C81.973541,124.632385 84.608292,139.791641 79.875160,155.577744 
	C76.010193,168.468292 70.808929,180.960999 67.019142,193.870529 
	C62.953732,207.718918 61.716900,221.817810 66.417213,235.974884 
	C69.996979,246.756927 77.505028,254.743927 84.583794,263.134857 
	C91.113358,270.874756 94.133453,280.058838 92.639687,290.054169 
	C90.152817,306.694794 79.835953,317.392273 64.815186,323.864594 
	C50.466118,330.047516 35.244827,331.196777 19.852303,331.093872 
z"/>
<path fill="#7E6DD1" opacity="1.000000" stroke="none" 
	d="
M19.915966,331.488464 
	C35.244827,331.196777 50.466118,330.047516 64.815186,323.864594 
	C79.835953,317.392273 90.152817,306.694794 92.639687,290.054169 
	C94.133453,280.058838 91.113358,270.874756 84.583794,263.134857 
	C77.505028,254.743927 69.996979,246.756927 66.417213,235.974884 
	C61.716900,221.817810 62.953732,207.718918 67.019142,193.870529 
	C70.808929,180.960999 76.010193,168.468292 79.875160,155.577744 
	C84.608292,139.791641 81.973541,124.632385 74.067871,110.327019 
	C73.554817,109.398651 72.435143,108.805527 71.244415,107.993607 
	C85.213821,90.195084 102.652084,75.970612 121.666977,63.013054 
	C124.440315,65.849236 126.892204,68.833054 129.674149,71.917854 
	C130.004211,72.018837 129.960114,72.005829 130.024506,72.268082 
	C130.384338,72.707886 130.679764,72.885452 130.985138,73.033691 
	C130.995087,73.004372 130.935898,73.022598 130.990204,73.291718 
	C131.348007,73.734787 131.651505,73.908745 131.961090,74.047958 
	C131.967194,74.013214 131.899796,74.034088 131.901459,74.340515 
	C132.304840,75.086845 132.706558,75.526749 133.220367,76.202972 
	C133.511856,76.928993 133.691284,77.418709 133.576141,78.065880 
	C132.397202,79.213852 131.421051,80.137390 130.642227,81.204895 
	C118.563202,97.761078 110.707733,116.083633 108.136467,136.473602 
	C107.274437,143.309464 107.203781,150.245117 106.577866,157.493530 
	C102.352242,164.559280 104.654076,172.016037 103.599785,179.277786 
	C101.560661,181.983032 99.791252,184.518112 97.702095,187.162476 
	C90.459229,191.614182 86.250320,197.734375 85.802528,205.982880 
	C85.506325,211.439087 85.519257,216.935471 85.793060,222.393829 
	C86.225616,231.016937 90.440018,237.456146 98.076843,242.084808 
	C102.212029,251.992493 109.794548,255.365128 119.685196,255.276520 
	C123.202209,271.612823 126.669090,287.510742 130.152328,303.405090 
	C133.332001,317.914246 128.449875,326.937897 114.653633,331.943695 
	C105.436043,335.288177 96.181419,338.531799 86.985298,341.933899 
	C68.053261,348.937744 47.932533,353.735596 34.016968,370.161163 
	C29.678413,358.799408 25.323215,347.443909 21.023617,336.067444 
	C20.518867,334.731873 20.320192,333.280640 19.915966,331.488464 
z"/>
<path fill="#FE7ACB" opacity="1.000000" stroke="none" 
	d="
M34.021667,370.521149 
	C47.932533,353.735596 68.053261,348.937744 86.985298,341.933899 
	C96.181419,338.531799 105.436043,335.288177 114.653633,331.943695 
	C128.449875,326.937897 133.332001,317.914246 130.152328,303.405090 
	C126.669090,287.510742 123.202209,271.612823 120.172775,255.228516 
	C124.363251,254.708450 128.109161,254.676331 132.035370,254.972443 
	C135.221573,261.390259 141.001801,259.711761 145.992981,260.678101 
	C145.994965,266.130066 145.719711,271.147095 146.062546,276.121490 
	C147.433075,296.008026 154.722458,313.195831 169.930313,327.035034 
	C175.783585,331.499390 181.449432,335.658630 186.739319,339.932617 
	C177.609818,342.639832 168.856262,345.232330 160.126068,347.369537 
	C160.147995,343.430389 160.215012,339.944885 160.128983,336.463135 
	C160.002823,331.357452 156.784378,327.938995 152.342621,328.050507 
	C148.082260,328.157440 144.987747,331.482971 144.906891,336.306458 
	C144.804016,342.443115 144.863235,348.582428 144.513397,354.838196 
	C130.559769,361.233734 117.316299,368.125885 105.919243,378.072998 
	C93.323448,389.066406 85.290894,402.157379 86.017685,419.627045 
	C86.355637,427.750549 85.951653,435.904877 85.884003,444.045227 
	C75.344452,431.589508 64.002960,419.709930 54.512711,406.500336 
	C46.561817,395.433441 40.772694,382.813446 34.021667,370.521149 
z"/>
<path fill="#D3DCFB" opacity="1.000000" stroke="none" 
	d="
M86.017540,444.363403 
	C85.951653,435.904877 86.355637,427.750549 86.017685,419.627045 
	C85.290894,402.157379 93.323448,389.066406 105.919243,378.072998 
	C117.316299,368.125885 130.559769,361.233734 144.554031,355.331543 
	C144.953110,370.256653 144.947372,384.806091 145.003098,399.355286 
	C145.027817,405.809479 146.531082,407.379700 153.059174,408.111786 
	C153.028732,435.130676 152.998291,462.149567 152.956833,489.644409 
	C143.677887,485.085602 134.292969,480.252930 125.168968,474.969635 
	C110.809151,466.654541 98.367165,455.796814 86.017540,444.363403 
z"/>
<path fill="#FFC7AB" opacity="1.000000" stroke="none" 
	d="
M278.049194,254.155914 
	C260.271057,253.341156 248.804291,264.243927 248.663177,282.086731 
	C248.631699,286.067505 248.570541,290.047974 248.120026,294.389984 
	C243.594025,291.415466 239.029343,288.496002 235.424377,284.671814 
	C219.563171,267.846130 209.869949,247.501556 203.181595,225.659607 
	C195.020187,199.007141 191.124466,171.609726 189.868958,143.437759 
	C196.801697,120.022766 211.451859,108.561394 235.378967,107.899384 
	C245.189377,110.574829 254.669617,112.941132 263.968170,115.882004 
	C266.660126,116.733414 269.569153,118.751717 271.086029,121.077957 
	C274.201996,125.856468 277.732300,130.955917 278.777222,136.370041 
	C280.912201,147.432266 284.914673,156.875183 293.752899,164.232681 
	C295.955811,166.066513 296.812683,169.517273 298.161560,172.576935 
	C297.376434,174.961258 296.168182,176.988403 296.149292,179.026581 
	C296.032043,191.676575 296.181702,204.329041 296.179993,217.447815 
	C296.121368,229.887360 296.125610,241.859756 295.658295,253.901672 
	C289.474243,254.032761 283.761719,254.094345 278.049194,254.155914 
z"/>
<path fill="#FEA97B" opacity="1.000000" stroke="none" 
	d="
M189.820038,143.813034 
	C191.124466,171.609726 195.020187,199.007141 203.181595,225.659607 
	C209.869949,247.501556 219.563171,267.846130 235.424377,284.671814 
	C239.029343,288.496002 243.594025,291.415466 247.997803,294.836212 
	C248.367447,311.678741 248.456284,328.436401 248.404114,345.648499 
	C237.449158,346.609772 226.635178,347.116577 215.492111,347.164276 
	C221.417465,340.989868 224.735764,333.813843 225.884079,325.495117 
	C226.425125,321.575592 225.933609,318.917572 221.133148,318.101227 
	C217.138931,317.422028 212.984650,316.172699 209.533829,314.115051 
	C201.644379,309.410706 194.142136,304.056946 186.293900,298.668518 
	C183.401550,295.222412 180.536697,292.197937 178.022339,288.905731 
	C167.285919,274.847809 161.094421,258.566345 155.282211,241.609863 
	C155.224991,233.863373 155.255676,226.576965 155.575714,219.119110 
	C170.530579,207.471832 178.511154,191.908142 182.902405,174.256866 
	C185.414261,164.160172 187.527405,153.964264 189.820038,143.813034 
z"/>
<path fill="#45314D" opacity="1.000000" stroke="none" 
	d="
M278.061279,254.542526 
	C283.761719,254.094345 289.474243,254.032761 296.109741,253.970856 
	C304.591675,253.922150 312.150604,253.873779 320.186188,253.890411 
	C324.748749,253.983032 328.834656,254.010666 332.926270,254.423935 
	C327.472870,276.610748 322.013824,298.411926 316.361176,320.558044 
	C312.704102,334.299103 309.240631,347.695160 305.777130,361.091248 
	C302.402283,348.584351 298.929047,336.103027 295.673981,323.565033 
	C289.738892,300.704102 283.933105,277.809601 278.061279,254.542526 
z"/>
<path fill="#359AEC" opacity="1.000000" stroke="none" 
	d="
M305.797211,361.508179 
	C309.240631,347.695160 312.704102,334.299103 316.463715,321.012573 
	C318.052704,328.636627 318.751495,329.091583 328.825500,328.977509 
	C327.612518,336.000427 327.000824,343.194489 325.060974,350.010559 
	C321.061859,364.062256 325.561554,377.307251 328.036774,390.731506 
	C333.846527,422.240936 339.917755,453.702179 345.911499,485.583374 
	C343.072998,485.992645 340.206177,486.001495 336.970276,485.835754 
	C326.628967,446.212433 316.650696,406.765228 306.704193,367.309998 
	C306.261047,365.552216 306.106354,363.721710 305.797211,361.508179 
z"/>
<path fill="#FB9461" opacity="1.000000" stroke="none" 
	d="
M186.482635,298.966949 
	C194.142136,304.056946 201.644379,309.410706 209.533829,314.115051 
	C212.984650,316.172699 217.138931,317.422028 221.133148,318.101227 
	C225.933609,318.917572 226.425125,321.575592 225.884079,325.495117 
	C224.735764,333.813843 221.417465,340.989868 215.055786,346.976501 
	C214.036301,347.374573 213.124039,347.501282 211.527405,347.452362 
	C202.933792,344.790466 195.024536,342.304169 187.115280,339.817902 
	C181.449432,335.658630 175.783585,331.499390 170.146790,326.770996 
	C179.878708,319.678558 187.455307,311.882172 186.482635,298.966949 
z"/>
<path fill="#BEC8F7" opacity="1.000000" stroke="none" 
	d="
M153.431030,408.073303 
	C146.531082,407.379700 145.027817,405.809479 145.003098,399.355286 
	C144.947372,384.806091 144.953110,370.256653 144.893204,355.213989 
	C144.863235,348.582428 144.804016,342.443115 144.906891,336.306458 
	C144.987747,331.482971 148.082260,328.157440 152.342621,328.050507 
	C156.784378,327.938995 160.002823,331.357452 160.128983,336.463135 
	C160.215012,339.944885 160.147995,343.430389 160.099960,347.854370 
	C160.075226,359.549591 160.099960,370.304626 160.124695,381.059692 
	C160.094025,387.361328 160.012817,393.663239 160.050034,399.964478 
	C160.075912,404.347565 158.504211,407.370911 153.431030,408.073303 
z"/>
<path fill="#D3DBFA" opacity="1.000000" stroke="none" 
	d="
M160.435059,380.960876 
	C160.099960,370.304626 160.075226,359.549591 160.076614,348.309692 
	C168.856262,345.232330 177.609818,342.639832 186.739319,339.932617 
	C195.024536,342.304169 202.933792,344.790466 211.181610,347.499481 
	C198.897980,352.316620 186.497482,357.459473 176.037643,366.091156 
	C170.588181,370.588135 165.820877,375.911804 160.435059,380.960876 
z"/>
<path fill="#7F6ED1" opacity="1.000000" stroke="none" 
	d="
M178.825333,37.064667 
	C178.851166,36.644970 178.876999,36.225273 178.909698,35.490158 
	C196.467560,29.487936 214.245377,24.703117 232.792191,24.064676 
	C248.136978,23.536459 263.503265,23.632626 279.143677,23.832064 
	C276.369843,30.812077 273.312317,37.412170 269.654022,44.194790 
	C257.721252,43.068283 246.389236,41.759254 234.594879,40.342133 
	C216.607895,39.913109 199.067978,39.414486 181.805115,44.402794 
	C180.663315,41.744740 179.744324,39.404701 178.825333,37.064667 
z"/>
<path fill="#FB90CE" opacity="1.000000" stroke="none" 
	d="
M267.965332,62.925346 
	C268.245148,78.236320 274.147400,87.249550 286.077484,90.495300 
	C286.819672,90.697227 287.669769,90.502472 289.132141,90.322937 
	C294.492249,89.784218 299.189880,89.414848 304.082123,89.324677 
	C306.549164,92.723610 308.821594,95.843330 311.198456,99.292862 
	C322.510742,117.468620 326.276947,137.329926 326.941589,158.337845 
	C326.089569,164.124359 325.404724,169.558945 324.328247,174.989532 
	C322.336975,175.008545 320.737305,175.031540 318.938965,174.755096 
	C315.987762,170.242722 311.582001,170.369110 307.312958,169.631897 
	C306.876801,162.522064 307.014496,155.793472 305.933014,149.266876 
	C300.389435,115.811226 268.925873,88.369148 235.878418,87.798035 
	C235.456818,87.543449 235.221313,87.387245 234.968994,86.808327 
	C232.386307,81.560829 229.575470,76.511963 231.221634,70.925896 
	C232.450836,66.754715 235.025024,62.979874 237.464752,58.996857 
	C247.941269,60.285229 257.953308,61.605286 267.965332,62.925346 
z"/>
<path fill="#FFBAE5" opacity="1.000000" stroke="none" 
	d="
M303.887512,89.045471 
	C299.189880,89.414848 294.492249,89.784218 289.391815,90.102600 
	C279.321533,85.502266 276.878967,76.182251 278.316528,65.389702 
	C280.648376,47.883347 289.993530,35.357754 306.687317,28.657719 
	C314.928314,25.350208 322.002716,28.482256 324.847992,36.848595 
	C328.098969,46.407860 327.369019,55.798508 323.970093,65.138702 
	C323.234985,67.158821 322.661469,69.237762 322.027679,71.684448 
	C322.041840,72.079285 322.007263,72.028328 321.807770,72.137611 
	C321.415039,72.525948 321.221802,72.805000 321.028564,73.084061 
	C321.028564,73.084061 321.013672,73.017403 320.805969,73.174820 
	C320.417877,73.667709 320.237518,74.003174 320.057129,74.338631 
	C319.440826,75.298393 318.824524,76.258156 317.856262,77.688248 
	C312.965363,81.787544 308.426453,85.416512 303.887512,89.045471 
z"/>
<path fill="#DEEDFF" opacity="1.000000" stroke="none" 
	d="
M267.973938,62.476067 
	C257.953308,61.605286 247.941269,60.285229 237.139008,58.934540 
	C235.914185,58.824390 235.479614,58.744873 234.958450,58.350605 
	C228.696442,49.642414 228.698456,49.643875 234.707550,41.378674 
	C234.895050,41.120766 234.943802,40.761978 235.057236,40.450218 
	C246.389236,41.759254 257.721252,43.068283 269.440552,44.532116 
	C269.212738,50.466873 268.597626,56.246830 267.973938,62.476067 
z"/>
<path fill="#FE7ACB" opacity="1.000000" stroke="none" 
	d="
M235.045029,58.665352 
	C235.479614,58.744873 235.914185,58.824390 236.674515,58.966225 
	C235.025024,62.979874 232.450836,66.754715 231.221634,70.925896 
	C229.575470,76.511963 232.386307,81.560829 234.587387,86.971283 
	C229.929184,87.563560 225.602264,87.625946 221.275223,87.677109 
	C197.896072,87.953506 178.655136,97.169106 163.578522,114.884880 
	C150.057480,130.772797 144.965927,149.505554 145.518616,170.148285 
	C140.118591,170.127075 135.208359,170.229904 131.657089,175.031006 
	C129.888535,174.984024 128.529266,174.969757 127.126953,174.497559 
	C126.322342,168.693939 125.560753,163.348251 124.851990,157.545563 
	C125.541145,131.966858 131.725189,108.718895 148.343903,88.908829 
	C159.909317,92.475471 167.715408,90.637306 171.133148,82.192970 
	C173.200104,77.086105 173.905029,70.884171 173.302628,65.384483 
	C172.617996,59.134113 169.792969,53.118191 167.898407,47.000351 
	C175.205383,46.817917 176.963394,45.254017 178.621140,37.353947 
	C179.744324,39.404701 180.663315,41.744740 181.782562,44.762535 
	C182.785278,51.161205 183.587753,56.882122 184.300659,61.964546 
	C194.410324,60.936291 204.237610,59.707150 214.102524,59.011471 
	C221.056900,58.521042 228.062378,58.754883 235.045029,58.665352 
z"/>
<path fill="#FFBAE5" opacity="1.000000" stroke="none" 
	d="
M167.623962,46.823097 
	C169.792969,53.118191 172.617996,59.134113 173.302628,65.384483 
	C173.905029,70.884171 173.200104,77.086105 171.133148,82.192970 
	C167.715408,90.637306 159.909317,92.475471 148.175781,88.633148 
	C143.031509,84.842918 138.451111,81.375664 133.870712,77.908417 
	C133.691284,77.418709 133.511856,76.928993 133.158585,75.910339 
	C132.623093,74.932289 132.261444,74.483185 131.899796,74.034088 
	C131.899796,74.034088 131.967194,74.013214 131.853760,73.816544 
	C131.472183,73.420776 131.204041,73.221687 130.935898,73.022598 
	C130.935898,73.022598 130.995087,73.004372 130.885223,72.797333 
	C130.503616,72.395477 130.231873,72.200653 129.960114,72.005829 
	C129.960114,72.005829 130.004211,72.018837 129.991302,72.038406 
	C128.618164,67.289215 127.203217,62.535233 125.910378,57.748272 
	C123.927032,50.404560 125.029755,43.186615 127.214928,36.111687 
	C128.867584,30.760899 133.110840,28.300886 138.649200,27.078947 
	C151.368286,29.360403 160.479248,36.385521 167.623962,46.823097 
z"/>
<path fill="#369DEF" opacity="1.000000" stroke="none" 
	d="
M332.920563,254.038300 
	C328.834656,254.010666 324.748749,253.983032 320.220703,253.433105 
	C319.733704,240.593124 319.688843,228.275452 319.747070,215.650116 
	C319.945465,214.920654 320.040771,214.498825 320.596130,214.083511 
	C325.033478,214.087646 329.035034,213.801559 332.983521,214.138062 
	C343.285461,215.015976 350.196564,210.767197 353.854004,201.558807 
	C353.760010,215.024857 353.616913,228.031494 353.473816,241.038132 
	C351.967804,246.680054 348.482788,250.696854 343.098267,253.587769 
	C342.843658,253.812683 342.418945,253.938629 341.747803,253.970947 
	C338.357941,254.014938 335.639252,254.026611 332.920563,254.038300 
z"/>
<path fill="#D3DBFA" opacity="1.000000" stroke="none" 
	d="
M327.108826,157.985901 
	C326.276947,137.329926 322.510742,117.468620 311.634644,99.302841 
	C322.920105,99.059387 324.639709,97.590454 325.156464,87.715622 
	C336.164612,102.950035 341.510071,120.295120 343.918335,138.672989 
	C344.629791,144.102432 344.728058,149.612244 344.649170,155.530396 
	C338.078278,153.088226 332.334106,153.332626 327.108826,157.985901 
z"/>
<path fill="#DDEDFF" opacity="1.000000" stroke="none" 
	d="
M326.941589,158.337845 
	C332.334106,153.332626 338.078278,153.088226 344.581238,155.990845 
	C348.860748,163.293396 347.752716,171.236481 347.992828,179.898315 
	C347.974640,181.789688 347.986450,182.787796 347.926605,183.781586 
	C347.484253,191.128983 342.637268,196.132095 336.119843,195.986481 
	C329.383575,195.835968 325.024261,190.963715 324.896454,183.455109 
	C324.848450,180.634384 324.779388,177.814041 324.719879,174.993515 
	C325.404724,169.558945 326.089569,164.124359 326.941589,158.337845 
z"/>
<path fill="#74C3F9" opacity="1.000000" stroke="none" 
	d="
M324.328247,174.989532 
	C324.779388,177.814041 324.848450,180.634384 324.896454,183.455109 
	C325.024261,190.963715 329.383575,195.835968 336.119843,195.986481 
	C342.637268,196.132095 347.484253,191.128983 347.926605,183.781586 
	C347.986450,182.787796 347.974640,181.789688 348.048859,180.358368 
	C349.670837,182.072205 351.239960,184.221237 352.996826,187.095398 
	C353.391327,192.246826 353.598114,196.673111 353.804871,201.099411 
	C350.196564,210.767197 343.285461,215.015976 332.983521,214.138062 
	C329.035034,213.801559 325.033478,214.087646 320.515503,213.614334 
	C319.946716,210.661346 319.944153,208.183472 319.885956,205.706879 
	C319.645691,195.489197 319.388580,185.271942 319.137665,175.054520 
	C320.737305,175.031540 322.336975,175.008545 324.328247,174.989532 
z"/>
<path fill="#DDECFE" opacity="1.000000" stroke="none" 
	d="
M353.854004,201.558807 
	C353.598114,196.673111 353.391327,192.246826 353.131073,187.410004 
	C359.369965,189.957581 363.919189,194.999817 364.736115,201.601471 
	C365.763092,209.900650 365.717743,218.490143 364.834290,226.816330 
	C364.173309,233.045502 360.175446,238.081818 353.855774,241.038177 
	C353.616913,228.031494 353.760010,215.024857 353.854004,201.558807 
z"/>
<path fill="#DEEDFE" opacity="1.000000" stroke="none" 
	d="
M325.081055,87.387581 
	C324.639709,97.590454 322.920105,99.059387 311.530151,98.973045 
	C308.821594,95.843330 306.549164,92.723610 304.082123,89.324677 
	C308.426453,85.416512 312.965363,81.787544 317.798279,77.968155 
	C320.396759,80.871666 322.701202,83.965607 325.081055,87.387581 
z"/>
<path fill="#FD86CD" opacity="1.000000" stroke="none" 
	d="
M320.297058,74.176208 
	C320.237518,74.003174 320.417877,73.667709 320.840088,73.176277 
	C320.900269,73.351471 320.718628,73.682632 320.297058,74.176208 
z"/>
<path fill="#FD86CD" opacity="1.000000" stroke="none" 
	d="
M321.279480,72.993752 
	C321.221802,72.805000 321.415039,72.525948 321.836365,72.126816 
	C321.886414,72.305641 321.708405,72.604538 321.279480,72.993752 
z"/>
<path fill="#49AEF3" opacity="1.000000" stroke="none" 
	d="
M332.926270,254.423920 
	C335.639252,254.026611 338.357941,254.014938 341.527954,253.998291 
	C337.651855,278.721802 333.324402,303.450256 328.911224,328.578125 
	C318.751495,329.091583 318.052704,328.636627 316.657318,320.667603 
	C322.013824,298.411926 327.472870,276.610748 332.926270,254.423920 
z"/>
<path fill="#BDC7F6" opacity="1.000000" stroke="none" 
	d="
M133.576141,78.065880 
	C138.451111,81.375664 143.031509,84.842918 147.780029,88.585846 
	C131.725189,108.718895 125.541145,131.966858 124.571854,157.361053 
	C118.555908,152.577942 112.709953,153.233612 106.771385,157.135147 
	C107.203781,150.245117 107.274437,143.309464 108.136467,136.473602 
	C110.707733,116.083633 118.563202,97.761078 130.642227,81.204895 
	C131.421051,80.137390 132.397202,79.213852 133.576141,78.065880 
z"/>
<path fill="#369CEF" opacity="1.000000" stroke="none" 
	d="
M131.855072,254.644226 
	C128.109161,254.676331 124.363251,254.708450 120.129768,254.788574 
	C109.794548,255.365128 102.212029,251.992493 98.082161,241.634766 
	C97.761513,228.281174 97.595032,215.700684 97.728592,203.210541 
	C102.426414,210.907410 108.942650,214.747757 117.804916,214.693680 
	C122.410439,214.665573 127.017982,214.968536 131.708984,215.430542 
	C131.893173,216.152847 131.992996,216.566559 132.008347,217.443771 
	C131.900955,230.152924 131.878021,242.398575 131.855072,254.644226 
z"/>
<path fill="#DDEDFF" opacity="1.000000" stroke="none" 
	d="
M106.577866,157.493530 
	C112.709953,153.233612 118.555908,152.577942 124.519028,157.818085 
	C125.560753,163.348251 126.322342,168.693939 127.074478,174.960938 
	C127.045692,178.529755 127.065308,181.178192 126.999535,183.824539 
	C126.817490,191.149521 122.113640,196.054779 115.381721,195.985077 
	C108.872040,195.917664 104.243782,191.071869 104.005745,184.066589 
	C103.949585,182.413956 103.914360,180.760635 103.869507,179.107620 
	C104.654076,172.016037 102.352242,164.559280 106.577866,157.493530 
z"/>
<path fill="#75C3F9" opacity="1.000000" stroke="none" 
	d="
M103.599777,179.277786 
	C103.914360,180.760635 103.949585,182.413956 104.005745,184.066589 
	C104.243782,191.071869 108.872040,195.917664 115.381721,195.985077 
	C122.113640,196.054779 126.817490,191.149521 126.999535,183.824539 
	C127.065308,181.178192 127.045692,178.529755 127.117516,175.418884 
	C128.529266,174.969757 129.888535,174.984024 131.640076,175.494492 
	C131.896439,189.034439 131.760529,202.078201 131.624619,215.121948 
	C127.017982,214.968536 122.410439,214.665573 117.804916,214.693680 
	C108.942650,214.747757 102.426414,210.907410 97.604919,202.793182 
	C97.461426,197.208069 97.741638,192.130630 98.021851,187.053207 
	C99.791252,184.518112 101.560661,181.983032 103.599777,179.277786 
z"/>
<path fill="#DCECFE" opacity="1.000000" stroke="none" 
	d="
M97.702103,187.162476 
	C97.741638,192.130630 97.461426,197.208069 97.304886,202.702850 
	C97.595032,215.700684 97.761513,228.281174 97.922668,241.311707 
	C90.440018,237.456146 86.225616,231.016937 85.793060,222.393829 
	C85.519257,216.935471 85.506325,211.439087 85.802528,205.982880 
	C86.250320,197.734375 90.459229,191.614182 97.702103,187.162476 
z"/>
<path fill="#FF7ACB" opacity="1.000000" stroke="none" 
	d="
M131.901459,74.340515 
	C132.261444,74.483185 132.623093,74.932289 133.046509,75.674026 
	C132.706558,75.526749 132.304840,75.086845 131.901459,74.340515 
z"/>
<path fill="#FF7ACB" opacity="1.000000" stroke="none" 
	d="
M130.990204,73.291718 
	C131.204041,73.221687 131.472183,73.420776 131.847656,73.851280 
	C131.651505,73.908745 131.348007,73.734787 130.990204,73.291718 
z"/>
<path fill="#FF7ACB" opacity="1.000000" stroke="none" 
	d="
M130.024506,72.268082 
	C130.231873,72.200653 130.503616,72.395477 130.875290,72.826660 
	C130.679764,72.885452 130.384338,72.707886 130.024506,72.268082 
z"/>
<path fill="#36263B" opacity="1.000000" stroke="none" 
	d="
M186.293900,298.668518 
	C187.455307,311.882172 179.878708,319.678558 169.959351,326.465881 
	C154.722458,313.195831 147.433075,296.008026 146.062546,276.121490 
	C145.719711,271.147095 145.994965,266.130066 146.389221,260.610413 
	C153.041962,259.325348 155.043579,257.132721 155.173157,250.916336 
	C155.234634,247.967453 155.304230,245.018723 155.370132,242.069931 
	C161.094421,258.566345 167.285919,274.847809 178.022339,288.905731 
	C180.536697,292.197937 183.401550,295.222412 186.293900,298.668518 
z"/>
<path fill="#D3DCFB" opacity="1.000000" stroke="none" 
	d="
M155.282211,241.609863 
	C155.304230,245.018723 155.234634,247.967453 155.173157,250.916336 
	C155.043579,257.132721 153.041962,259.325348 146.396042,260.155884 
	C141.001801,259.711761 135.221573,261.390259 132.035370,254.972443 
	C131.878021,242.398575 131.900955,230.152924 132.363449,217.515488 
	C140.204376,221.758194 147.571899,220.952499 155.028717,217.359512 
	C155.187256,218.252136 155.236816,218.771332 155.286377,219.290543 
	C155.255676,226.576965 155.224991,233.863373 155.282211,241.609863 
z"/>
<path fill="#36253B" opacity="1.000000" stroke="none" 
	d="
M155.575714,219.119110 
	C155.236816,218.771332 155.187256,218.252136 155.146820,216.904144 
	C155.162979,204.509293 155.180603,192.943207 155.173447,181.377121 
	C155.168427,173.257416 153.974228,171.817383 145.944565,170.101517 
	C144.965927,149.505554 150.057480,130.772797 163.578522,114.884880 
	C178.655136,97.169106 197.896072,87.953506 221.275223,87.677109 
	C225.602264,87.625946 229.929184,87.563560 234.637756,87.343399 
	C235.221313,87.387245 235.456818,87.543449 235.708344,88.107956 
	C230.148712,94.784828 231.754059,101.266983 234.979645,107.809013 
	C211.451859,108.561394 196.801697,120.022766 189.868958,143.437759 
	C187.527405,153.964264 185.414261,164.160172 182.902405,174.256866 
	C178.511154,191.908142 170.530579,207.471832 155.575714,219.119110 
z"/>
<path fill="#47314D" opacity="1.000000" stroke="none" 
	d="
M235.378967,107.899384 
	C231.754059,101.266983 230.148712,94.784828 235.860886,88.256927 
	C268.925873,88.369148 300.389435,115.811226 305.933014,149.266876 
	C307.014496,155.793472 306.876801,162.522064 306.937653,169.757660 
	C303.812012,170.980164 301.050110,171.602493 298.288239,172.224838 
	C296.812683,169.517273 295.955811,166.066513 293.752899,164.232681 
	C284.914673,156.875183 280.912201,147.432266 278.777222,136.370041 
	C277.732300,130.955917 274.201996,125.856468 271.086029,121.077957 
	C269.569153,118.751717 266.660126,116.733414 263.968170,115.882004 
	C254.669617,112.941132 245.189377,110.574829 235.378967,107.899384 
z"/>
<path fill="#DEEDFE" opacity="1.000000" stroke="none" 
	d="
M298.161560,172.576935 
	C301.050110,171.602493 303.812012,170.980164 306.949188,170.232071 
	C311.582001,170.369110 315.987762,170.242722 318.938965,174.755096 
	C319.388580,185.271942 319.645691,195.489197 319.885956,205.706879 
	C319.944153,208.183472 319.946716,210.661346 320.055481,213.607819 
	C320.040771,214.498825 319.945465,214.920654 319.422974,215.735535 
	C315.534424,217.419418 312.090576,219.684906 308.606995,219.747726 
	C304.503571,219.821716 300.365723,217.987518 296.242798,216.980698 
	C296.181702,204.329041 296.032043,191.676575 296.149292,179.026581 
	C296.168182,176.988403 297.376434,174.961258 298.161560,172.576935 
z"/>
<path fill="#D0DBFA" opacity="1.000000" stroke="none" 
	d="
M296.179993,217.447815 
	C300.365723,217.987518 304.503571,219.821716 308.606995,219.747726 
	C312.090576,219.684906 315.534424,217.419418 319.319916,216.043167 
	C319.688843,228.275452 319.733704,240.593124 319.744049,253.368103 
	C312.150604,253.873779 304.591675,253.922150 296.581299,253.901352 
	C296.125610,241.859756 296.121368,229.887360 296.179993,217.447815 
z"/>
<path fill="#D2D9FA" opacity="1.000000" stroke="none" 
	d="
M234.958450,58.350601 
	C228.062378,58.754883 221.056900,58.521042 214.102524,59.011471 
	C204.237610,59.707150 194.410324,60.936291 184.300659,61.964546 
	C183.587753,56.882122 182.785278,51.161205 182.005371,45.080551 
	C199.067978,39.414486 216.607895,39.913109 234.594879,40.342133 
	C234.943802,40.761978 234.895050,41.120766 234.707550,41.378674 
	C228.698456,49.643875 228.696442,49.642414 234.958450,58.350601 
z"/>
<path fill="#DEEDFE" opacity="1.000000" stroke="none" 
	d="
M145.518616,170.148285 
	C153.974228,171.817383 155.168427,173.257416 155.173447,181.377121 
	C155.180603,192.943207 155.162979,204.509293 155.037842,216.530731 
	C147.571899,220.952499 140.204376,221.758194 132.447906,217.051987 
	C131.992996,216.566559 131.893173,216.152847 131.708984,215.430542 
	C131.760529,202.078201 131.896439,189.034439 132.049362,175.527206 
	C135.208359,170.229904 140.118591,170.127075 145.518616,170.148285 
z"/>
</svg>