<svg width="17" height="24" viewBox="0 0 17 24" fill="none" xmlns="http://www.w3.org/2000/svg">
<path d="M12.5813 19.7753C12.3649 19.7751 12.1574 19.689 12.0045 19.5359C11.9304 19.4565 11.8714 19.3643 11.8304 19.2638C11.7869 19.1681 11.7646 19.0641 11.7651 18.959C11.7639 18.8517 11.7846 18.7452 11.8257 18.6461C11.8669 18.547 11.9277 18.4572 12.0045 18.3822C12.0795 18.3051 12.1681 18.2424 12.2657 18.1972C12.4167 18.14 12.5808 18.127 12.7389 18.1598C12.8969 18.1925 13.0424 18.2697 13.1581 18.3822C13.235 18.4572 13.2958 18.547 13.3369 18.6461C13.3781 18.7452 13.3987 18.8517 13.3976 18.959C13.398 19.0641 13.3758 19.1681 13.3323 19.2638C13.2913 19.3643 13.2323 19.4565 13.1581 19.5359C13.0052 19.689 12.7977 19.7751 12.5813 19.7753Z" fill="white"/>
<path d="M12.5813 16.2382C12.3648 16.2382 12.1572 16.1522 12.0041 15.9991C11.851 15.846 11.765 15.6384 11.765 15.4219C11.7647 15.3133 11.7869 15.2058 11.8303 15.1063C11.8687 15.0076 11.9281 14.9185 12.0045 14.8451C12.1602 14.6973 12.3666 14.615 12.5813 14.615C12.7959 14.615 13.0024 14.6973 13.1581 14.8451C13.2344 14.9185 13.2938 15.0076 13.3322 15.1063C13.3756 15.2058 13.3979 15.3133 13.3975 15.4219C13.3967 15.5269 13.3745 15.6306 13.3322 15.7266C13.2937 15.8285 13.2344 15.9211 13.1581 15.9987C13.0052 16.1519 12.7977 16.238 12.5813 16.2382Z" fill="white"/>
<path d="M14.3335 23.3995H2.66645C1.95927 23.3995 1.28104 23.1186 0.780986 22.6185C0.280929 22.1185 0 21.4402 0 20.733V2.66645C0 1.95927 0.280929 1.28104 0.780986 0.780986C1.28104 0.280929 1.95927 0 2.66645 0H14.3335C15.0407 0 15.719 0.280929 16.219 0.780986C16.7191 1.28104 17 1.95927 17 2.66645V20.733C17 21.4402 16.7191 22.1185 16.219 22.6185C15.719 23.1186 15.0407 23.3995 14.3335 23.3995ZM2.66645 1.63252C2.38734 1.6465 2.1243 1.7673 1.93182 1.96991C1.73934 2.17252 1.63217 2.44141 1.63252 2.72087V20.733C1.64571 21.003 1.75888 21.2584 1.95 21.4495C2.14111 21.6406 2.3965 21.7538 2.66645 21.767H14.3335C14.6035 21.7538 14.8589 21.6406 15.05 21.4495C15.2411 21.2584 15.3543 21.003 15.3675 20.733V2.66645C15.3678 2.38699 15.2607 2.1181 15.0682 1.91549C14.8757 1.71288 14.6127 1.59208 14.3335 1.57811L2.66645 1.63252Z" fill="white"/>
<path d="M6.1926 19.7753C5.97612 19.7753 5.7685 19.6893 5.61542 19.5362C5.46234 19.3831 5.37634 19.1755 5.37634 18.959V15.4219C5.37634 15.2054 5.46234 14.9978 5.61542 14.8447C5.7685 14.6916 5.97612 14.6056 6.1926 14.6056C6.40909 14.6056 6.61671 14.6916 6.76979 14.8447C6.92287 14.9978 7.00887 15.2054 7.00887 15.4219V18.959C7.00605 19.1746 6.91914 19.3806 6.76667 19.5331C6.6142 19.6856 6.40821 19.7725 6.1926 19.7753Z" fill="white"/>
<path d="M7.95581 18.0013H4.41868C4.20219 18.0013 3.99457 17.9153 3.84149 17.7622C3.68842 17.6091 3.60242 17.4015 3.60242 17.185C3.60242 16.9685 3.68842 16.7609 3.84149 16.6078C3.99457 16.4548 4.20219 16.3688 4.41868 16.3688H7.95581C8.1723 16.3688 8.37992 16.4548 8.533 16.6078C8.68607 16.7609 8.77207 16.9685 8.77207 17.185C8.77207 17.4015 8.68607 17.6091 8.533 17.7622C8.37992 17.9153 8.1723 18.0013 7.95581 18.0013Z" fill="white"/>
<path d="M16.1837 12.516H0.816261C0.599775 12.516 0.392156 12.43 0.239077 12.2769C0.0859986 12.1239 0 11.9162 0 11.6997C0 11.4833 0.0859986 11.2756 0.239077 11.1226C0.392156 10.9695 0.599775 10.8835 0.816261 10.8835H16.1837C16.4002 10.8835 16.6078 10.9695 16.7609 11.1226C16.914 11.2756 17 11.4833 17 11.6997C17 11.9162 16.914 12.1239 16.7609 12.2769C16.6078 12.43 16.4002 12.516 16.1837 12.516Z" fill="white"/>
</svg>
