<svg width="25" height="22" viewBox="0 0 25 22" fill="none" xmlns="http://www.w3.org/2000/svg">
<path d="M0.78125 4.71429H21.0938C21.5254 4.71429 21.875 4.36268 21.875 3.92857V0.785714C21.875 0.351607 21.5254 0 21.0938 0H0.78125C0.349609 0 0 0.351607 0 0.785714V3.92857C0 4.36268 0.349609 4.71429 0.78125 4.71429ZM24.2188 8.64286H3.90625C3.47461 8.64286 3.125 8.99446 3.125 9.42857V12.5714C3.125 13.0055 3.47461 13.3571 3.90625 13.3571H24.2188C24.6504 13.3571 25 13.0055 25 12.5714V9.42857C25 8.99446 24.6504 8.64286 24.2188 8.64286ZM21.0938 17.2857H0.78125C0.349609 17.2857 0 17.6373 0 18.0714V21.2143C0 21.6484 0.349609 22 0.78125 22H21.0938C21.5254 22 21.875 21.6484 21.875 21.2143V18.0714C21.875 17.6373 21.5254 17.2857 21.0938 17.2857Z" fill="white"/>
</svg>
