<svg width="20" height="20" viewBox="0 0 20 20" fill="none" xmlns="http://www.w3.org/2000/svg">
<path d="M5.66106 20C5.00636 20.0022 4.36574 19.8086 3.82044 19.4436C3.27514 19.0786 2.84972 18.5588 2.59814 17.9499C2.34656 17.3411 2.28015 16.6707 2.40732 16.0237C2.5345 15.3768 2.84953 14.7825 3.31248 14.3162C3.77542 13.8498 4.36542 13.5325 5.00766 13.4044C5.64989 13.2763 6.31542 13.3432 6.91986 13.5966C7.5243 13.85 8.04041 14.2785 8.40274 14.8278C8.76507 15.3771 8.9573 16.0224 8.95506 16.6819C8.95506 17.5619 8.60801 18.4059 7.99027 19.0281C7.37252 19.6504 6.53468 20 5.66106 20ZM5.66106 15.0686C5.34382 15.0664 5.03307 15.1591 4.7682 15.3349C4.50334 15.5108 4.29629 15.762 4.17333 16.0566C4.05037 16.3511 4.01703 16.6759 4.07754 16.9896C4.13804 17.3033 4.28968 17.5918 4.5132 17.8186C4.73672 18.0453 5.02207 18.2001 5.33305 18.2633C5.64403 18.3265 5.96663 18.2952 6.25994 18.1734C6.55325 18.0517 6.80405 17.8449 6.98054 17.5794C7.15703 17.3138 7.25126 17.0015 7.25127 16.6819C7.25128 16.256 7.0841 15.8474 6.7862 15.5452C6.4883 15.243 6.08385 15.0717 5.66106 15.0686Z" fill="white"/>
<path d="M13.8505 20C13.1958 20.0022 12.5552 19.8086 12.0099 19.4436C11.4646 19.0786 11.0392 18.5588 10.7876 17.9499C10.536 17.3411 10.4696 16.6707 10.5968 16.0237C10.724 15.3768 11.039 14.7825 11.5019 14.3162C11.9649 13.8498 12.5549 13.5325 13.1971 13.4044C13.8393 13.2763 14.5049 13.3432 15.1093 13.5966C15.7137 13.85 16.2299 14.2785 16.5922 14.8278C16.9545 15.3771 17.1468 16.0224 17.1445 16.6819C17.1445 17.1176 17.0593 17.5491 16.8938 17.9517C16.7282 18.3542 16.4856 18.72 16.1797 19.0281C15.8738 19.3363 15.5107 19.5807 15.1111 19.7474C14.7114 19.9142 14.2831 20 13.8505 20ZM13.8505 15.0686C13.5333 15.0664 13.2225 15.1591 12.9577 15.3349C12.6928 15.5108 12.4857 15.762 12.3628 16.0566C12.2398 16.3511 12.2065 16.6759 12.267 16.9896C12.3275 17.3033 12.4791 17.5918 12.7027 17.8186C12.9262 18.0453 13.2115 18.2001 13.5225 18.2633C13.8335 18.3265 14.1561 18.2952 14.4494 18.1734C14.7427 18.0517 14.9935 17.8449 15.17 17.5794C15.3465 17.3138 15.4407 17.0015 15.4407 16.6819C15.4407 16.256 15.2736 15.8474 14.9757 15.5452C14.6778 15.243 14.2733 15.0717 13.8505 15.0686Z" fill="white"/>
<path d="M11.4086 17.54H8.10324C7.8773 17.54 7.66062 17.4496 7.50086 17.2887C7.3411 17.1278 7.25134 16.9095 7.25134 16.6819C7.25134 16.4543 7.3411 16.2361 7.50086 16.0751C7.66062 15.9142 7.8773 15.8238 8.10324 15.8238H11.4086C11.6345 15.8238 11.8512 15.9142 12.011 16.0751C12.1707 16.2361 12.2605 16.4543 12.2605 16.6819C12.2605 16.9095 12.1707 17.1278 12.011 17.2887C11.8512 17.4496 11.6345 17.54 11.4086 17.54Z" fill="white"/>
<path d="M0.856313 13.1579C0.696239 13.1567 0.53957 13.1112 0.403375 13.0265C0.267181 12.9417 0.156685 12.821 0.0839266 12.6773C-0.0137201 12.4725 -0.0267027 12.237 0.0478273 12.0225C0.122357 11.808 0.278313 11.632 0.481478 11.5332C3.41411 10.2808 6.5769 9.6686 9.76147 9.73684H10C10.2259 9.73684 10.4426 9.82725 10.6024 9.98818C10.7621 10.1491 10.8519 10.3674 10.8519 10.595C10.8519 10.8226 10.7621 11.0408 10.6024 11.2018C10.4426 11.3627 10.2259 11.4531 10 11.4531H9.77283C6.84678 11.4057 3.94139 11.9544 1.23115 13.0664C1.11732 13.132 0.987339 13.1637 0.856313 13.1579Z" fill="white"/>
<path d="M19.1209 13.1579C18.9937 13.1616 18.868 13.1299 18.7575 13.0664C15.984 11.9122 12.9994 11.3624 9.99997 11.4531C9.77403 11.4531 9.55735 11.3627 9.39759 11.2018C9.23782 11.0408 9.14807 10.8226 9.14807 10.595C9.14807 10.3674 9.23782 10.1491 9.39759 9.98818C9.55735 9.82726 9.77403 9.73685 9.99997 9.73685C13.2654 9.62257 16.5156 10.2359 19.5185 11.5332C19.7217 11.632 19.8776 11.808 19.9521 12.0225C20.0267 12.237 20.0137 12.4725 19.916 12.6773C19.8415 12.8245 19.7275 12.9475 19.5869 13.0325C19.4463 13.1175 19.2849 13.1609 19.1209 13.1579Z" fill="white"/>
<path d="M3.99133 9.16475H3.8891C3.77791 9.15063 3.67058 9.11454 3.57326 9.05856C3.47594 9.00258 3.39054 8.92781 3.32196 8.83853C3.25337 8.74925 3.20295 8.64721 3.17358 8.53827C3.1442 8.42933 3.13646 8.31562 3.15079 8.20365C3.30981 6.83066 4.37752 0 7.52386 0H10.125C10.3509 0 10.5676 0.090409 10.7274 0.251338C10.8871 0.412267 10.9769 0.630535 10.9769 0.858123C10.9769 1.08571 10.8871 1.30398 10.7274 1.46491C10.5676 1.62584 10.3509 1.71625 10.125 1.71625H7.52386C6.45615 1.71625 5.25214 5.25171 4.84323 8.42104C4.81556 8.62827 4.71373 8.81819 4.55686 8.95514C4.4 9.09208 4.1989 9.16662 3.99133 9.16475Z" fill="white"/>
<path d="M15.986 9.16475C15.7784 9.16662 15.5773 9.09208 15.4205 8.95514C15.2636 8.81819 15.1618 8.62827 15.1341 8.42104C14.7252 5.25171 13.5326 1.71625 12.4535 1.71625H9.8978C9.67186 1.71625 9.45517 1.62584 9.29541 1.46491C9.13565 1.30398 9.0459 1.08571 9.0459 0.858123C9.0459 0.630535 9.13565 0.412267 9.29541 0.251338C9.45517 0.090409 9.67186 0 9.8978 0H12.4535C15.5203 0 16.5767 6.27002 16.8266 8.19221C16.8409 8.30417 16.8331 8.41788 16.8038 8.52683C16.7744 8.63577 16.724 8.73781 16.6554 8.82709C16.5868 8.91637 16.5014 8.99114 16.4041 9.04712C16.3068 9.1031 16.1994 9.13918 16.0882 9.15331L15.986 9.16475Z" fill="white"/>
</svg>
