<svg width="24" height="24" viewBox="0 0 24 24" fill="none" xmlns="http://www.w3.org/2000/svg">
<path d="M11.55 18.46C11.3515 18.4577 11.1617 18.3789 11.02 18.24L5.31996 12.53C5.19488 12.3935 5.12549 12.2151 5.12549 12.03C5.12549 11.8449 5.19488 11.6665 5.31996 11.53L13.71 3C13.8505 2.85931 14.0411 2.78018 14.24 2.78H19.99C20.1862 2.78 20.3744 2.85796 20.5132 2.99674C20.652 3.13552 20.73 3.32374 20.73 3.52L20.8 9.2C20.8003 9.40188 20.7212 9.5958 20.58 9.74L12.07 18.25C11.9281 18.3812 11.7431 18.4559 11.55 18.46ZM6.89996 12L11.55 16.64L19.3 8.89L19.25 4.27H14.56L6.89996 12Z" fill="#929292"/>
<path d="M14.3499 21.25C14.2511 21.2522 14.1529 21.2338 14.0617 21.1959C13.9704 21.158 13.8881 21.1015 13.8199 21.03L2.5199 9.74C2.38742 9.59783 2.31529 9.40978 2.31872 9.21548C2.32215 9.02118 2.40086 8.83579 2.53827 8.69838C2.67569 8.56097 2.86107 8.48225 3.05537 8.47883C3.24967 8.4754 3.43772 8.54752 3.5799 8.68L14.8799 20C15.0203 20.1406 15.0992 20.3313 15.0992 20.53C15.0992 20.7288 15.0203 20.9194 14.8799 21.06C14.7352 21.1907 14.5447 21.259 14.3499 21.25Z" fill="#929292"/>
<path d="M6.49991 21.19C6.31622 21.1867 6.13942 21.1195 5.99991 21L2.54991 17.55C2.47875 17.4774 2.42267 17.3914 2.38491 17.297C2.34715 17.2026 2.32846 17.1017 2.32991 17C2.32991 16.59 2.32991 16.58 6.44991 12.58C6.59054 12.4396 6.78116 12.3607 6.97991 12.3607C7.17866 12.3607 7.36929 12.4396 7.50991 12.58C7.65036 12.7206 7.72925 12.9112 7.72925 13.11C7.72925 13.3088 7.65036 13.4994 7.50991 13.64C6.21991 14.91 4.81991 16.29 4.11991 17L6.49991 19.38L9.85991 16C9.92886 15.9292 10.0113 15.873 10.1023 15.8346C10.1933 15.7962 10.2911 15.7764 10.3899 15.7764C10.4887 15.7764 10.5865 15.7962 10.6775 15.8346C10.7686 15.873 10.851 15.9292 10.9199 16C11.0604 16.1406 11.1393 16.3313 11.1393 16.53C11.1393 16.7288 11.0604 16.9194 10.9199 17.06L6.99991 21C6.86131 21.121 6.68393 21.1885 6.49991 21.19Z" fill="#929292"/>
</svg>
